<svg width="272" height="44" viewBox="0 0 272 44" fill="none" xmlns="http://www.w3.org/2000/svg">
<path d="M0.454102 39.0439C0.415039 39.0049 0.395508 38.9316 0.395508 38.8242C0.395508 38.6484 0.405273 38.5605 0.424805 38.5605C0.50293 38.5605 0.615234 38.541 0.761719 38.502C0.917969 38.4629 1.06445 38.4141 1.20117 38.3555C1.34766 38.2871 1.44043 38.2188 1.47949 38.1504C1.57715 38.0039 1.66992 37.8379 1.75781 37.6523C1.8457 37.457 1.93848 37.2422 2.03613 37.0078L4.76074 30.416C4.99512 29.8203 5.17578 29.4688 5.30273 29.3613C5.37109 29.293 5.4541 29.2588 5.55176 29.2588C5.62012 29.2588 5.67871 29.2832 5.72754 29.332L8.80371 37.0078C8.88184 37.1934 8.95508 37.3789 9.02344 37.5645C9.10156 37.7402 9.1748 37.9111 9.24316 38.0771C9.28223 38.1748 9.37012 38.2627 9.50684 38.3408C9.64355 38.4092 9.78516 38.4629 9.93164 38.502C10.0781 38.541 10.1904 38.5605 10.2686 38.5605C10.3076 38.5605 10.3271 38.6484 10.3271 38.8242C10.3271 38.9316 10.3174 39.0049 10.2979 39.0439L8.45215 38.9561L6.54785 39.0439C6.50879 39.0049 6.48926 38.9121 6.48926 38.7656C6.48926 38.6289 6.50879 38.5605 6.54785 38.5605C6.66504 38.5605 6.82617 38.5312 7.03125 38.4727C7.23633 38.4141 7.3584 38.3457 7.39746 38.2676C7.42676 38.209 7.44141 38.1455 7.44141 38.0771C7.44141 37.9795 7.41699 37.8477 7.36816 37.6816C7.31934 37.5156 7.25098 37.3105 7.16309 37.0664L6.65039 35.7041C6.61133 35.665 6.57715 35.6455 6.54785 35.6455C6.3916 35.6357 6.20605 35.6309 5.99121 35.6309C5.78613 35.6211 5.55176 35.6162 5.28809 35.6162C4.76074 35.6162 4.2041 35.6309 3.61816 35.6602C3.55957 35.6602 3.53027 35.6797 3.53027 35.7188L2.97363 37.0811C2.87598 37.3252 2.80273 37.5303 2.75391 37.6963C2.71484 37.8525 2.69531 37.9648 2.69531 38.0332C2.69531 38.1504 2.74902 38.248 2.85645 38.3262C2.91504 38.3652 3.00293 38.4043 3.12012 38.4434C3.24707 38.4727 3.37402 38.502 3.50098 38.5312C3.62793 38.5508 3.71582 38.5605 3.76465 38.5605C3.79395 38.5703 3.80859 38.6387 3.80859 38.7656C3.80859 38.834 3.80371 38.8926 3.79395 38.9414C3.79395 38.9805 3.78906 39.0146 3.7793 39.0439C3.41797 39.0244 3.12012 39.0049 2.88574 38.9854C2.66113 38.9658 2.45117 38.9561 2.25586 38.9561C2.06055 38.9561 1.82617 38.9609 1.55273 38.9707C1.2793 38.9805 0.913086 39.0049 0.454102 39.0439ZM5.02441 34.8252C5.37598 34.8252 5.77637 34.8105 6.22559 34.7812L6.25488 34.7227L5.1416 31.793L3.94043 34.7227C3.94043 34.7617 3.9502 34.7812 3.96973 34.7812C4.31152 34.8105 4.66309 34.8252 5.02441 34.8252ZM17.2031 39.0879C17.1445 39.0879 17.1152 39.0049 17.1152 38.8389V38.5898C17.1152 38.5605 17.1055 38.541 17.0859 38.5312C17.0762 38.5215 17.0664 38.5215 17.0566 38.5312C16.5977 38.8926 16.0898 39.0732 15.5332 39.0732C15.0059 39.0732 14.5176 38.9414 14.0684 38.6777C13.6289 38.4043 13.2725 38.0381 12.999 37.5791C12.7256 37.1201 12.5889 36.5977 12.5889 36.0117C12.5889 35.3672 12.7402 34.7812 13.043 34.2539C13.3555 33.7168 13.7705 33.292 14.2881 32.9795C14.8057 32.6572 15.3672 32.4961 15.9727 32.4961C16.3828 32.4961 16.7393 32.5645 17.042 32.7012C17.0908 32.7012 17.1152 32.623 17.1152 32.4668V31.0898C17.1152 30.7188 17.0859 30.3867 17.0273 30.0938C16.9883 29.9375 16.7344 29.8594 16.2656 29.8594H16.1484C16.0898 29.8594 16.0605 29.7812 16.0605 29.625C16.0605 29.4688 16.0898 29.3906 16.1484 29.3906C16.4414 29.3613 16.7246 29.3223 16.998 29.2734C17.2812 29.2246 17.5156 29.1758 17.7012 29.127C17.9648 29.0488 18.1699 28.9805 18.3164 28.9219C18.4727 28.8633 18.5605 28.834 18.5801 28.834H18.6094C18.6484 28.834 18.6875 28.8633 18.7266 28.9219C18.7656 28.9707 18.7852 29.0195 18.7852 29.0684C18.6875 29.4297 18.6387 29.8887 18.6387 30.4453V36.8906C18.6387 37.1152 18.6484 37.3545 18.668 37.6084C18.6875 37.8525 18.7217 38.0039 18.7705 38.0625C18.8193 38.1113 18.8975 38.1504 19.0049 38.1797C19.1221 38.209 19.2344 38.2285 19.3418 38.2383C19.459 38.2383 19.5371 38.2383 19.5762 38.2383C19.5957 38.2578 19.6055 38.3164 19.6055 38.4141C19.6055 38.6094 19.5762 38.707 19.5176 38.707C19.3809 38.7168 19.2051 38.7363 18.9902 38.7656C18.7852 38.7949 18.585 38.8242 18.3896 38.8535C17.999 38.9219 17.7012 38.9756 17.4961 39.0146C17.3008 39.0635 17.2031 39.0879 17.2031 39.0879ZM16.002 38.2676C16.334 38.2676 16.6025 38.1846 16.8076 38.0186C17.0127 37.8428 17.1152 37.623 17.1152 37.3594V34.2832C17.1152 34.1465 17.0762 33.9951 16.998 33.8291C16.9297 33.6631 16.8027 33.5166 16.6172 33.3896C16.4414 33.2627 16.1826 33.1992 15.8408 33.1992C15.3232 33.1992 14.9326 33.4189 14.6689 33.8584C14.4053 34.2979 14.2734 34.8887 14.2734 35.6309C14.2734 36.4609 14.4248 37.1104 14.7275 37.5791C15.0303 38.0381 15.4551 38.2676 16.002 38.2676ZM25.2949 39.1611C25.207 39.1611 25.1484 39.1318 25.1191 39.0732C24.8555 38.4775 24.6309 37.9795 24.4453 37.5791C24.2695 37.1689 24.1133 36.8125 23.9766 36.5098C23.8496 36.207 23.7227 35.9189 23.5957 35.6455C23.4785 35.3623 23.3418 35.0547 23.1855 34.7227C23.0293 34.3809 22.8389 33.9609 22.6143 33.4629C22.4971 33.1895 22.1797 33.0527 21.6621 33.0527C21.623 33.0527 21.6035 32.9746 21.6035 32.8184C21.6035 32.7012 21.623 32.623 21.6621 32.584C21.9355 32.584 22.2236 32.5986 22.5264 32.6279C22.8389 32.6572 23.1465 32.6719 23.4492 32.6719C23.7422 32.6719 24.04 32.6572 24.3428 32.6279C24.6455 32.5986 24.9336 32.584 25.207 32.584C25.2363 32.623 25.2461 32.7109 25.2363 32.8477C25.2363 32.9844 25.2168 33.0527 25.1777 33.0527C25.0996 33.0527 24.9922 33.0674 24.8555 33.0967C24.7188 33.126 24.5967 33.165 24.4893 33.2139C24.3818 33.2529 24.3281 33.3066 24.3281 33.375C24.3281 33.4336 24.3379 33.4824 24.3574 33.5215L25.8076 36.8906L27.126 33.9902C27.2334 33.7559 27.2578 33.5752 27.1992 33.4482C27.0527 33.1846 26.7109 33.0527 26.1738 33.0527C26.1445 33.0527 26.1299 32.9844 26.1299 32.8477C26.1299 32.7109 26.1445 32.623 26.1738 32.584C26.457 32.5938 26.7402 32.6133 27.0234 32.6426C27.3066 32.6621 27.541 32.6719 27.7266 32.6719C27.9023 32.6719 28.1318 32.6621 28.415 32.6426C28.708 32.6133 29.001 32.5938 29.2939 32.584C29.3232 32.623 29.3379 32.7012 29.3379 32.8184C29.3379 32.9746 29.3086 33.0527 29.25 33.0527C29.1133 33.0527 28.9229 33.1016 28.6787 33.1992C28.4346 33.2871 28.2686 33.4238 28.1807 33.6094L25.7344 38.7803C25.6953 38.8584 25.6318 38.9414 25.5439 39.0293C25.4561 39.1172 25.373 39.1611 25.2949 39.1611ZM34.3828 39.1025C33.7676 39.1025 33.2061 38.9561 32.6982 38.6631C32.2002 38.3604 31.7998 37.96 31.4971 37.4619C31.2041 36.9639 31.0576 36.4121 31.0576 35.8066C31.0576 35.1914 31.2041 34.6396 31.4971 34.1514C31.79 33.6533 32.1855 33.2578 32.6836 32.9648C33.1914 32.6719 33.7529 32.5254 34.3682 32.5254C34.9834 32.5254 35.54 32.6719 36.0381 32.9648C36.5459 33.2578 36.9463 33.6533 37.2393 34.1514C37.542 34.6494 37.6934 35.2012 37.6934 35.8066C37.6934 36.4121 37.5469 36.9639 37.2539 37.4619C36.9609 37.96 36.5654 38.3604 36.0674 38.6631C35.5693 38.9561 35.0078 39.1025 34.3828 39.1025ZM34.5293 38.4141C34.8418 38.4141 35.1055 38.3115 35.3203 38.1064C35.5352 37.9014 35.7012 37.6279 35.8184 37.2861C35.9355 36.9346 35.9941 36.5586 35.9941 36.1582C35.9941 35.6309 35.9209 35.1475 35.7744 34.708C35.6377 34.2588 35.4326 33.8975 35.1592 33.624C34.8955 33.3506 34.5684 33.2139 34.1777 33.2139C33.875 33.2139 33.6113 33.3164 33.3867 33.5215C33.1719 33.7266 33.0059 34 32.8887 34.3418C32.7812 34.6836 32.7275 35.0596 32.7275 35.4697C32.7275 35.9971 32.7959 36.4854 32.9326 36.9346C33.0791 37.374 33.2891 37.7305 33.5625 38.0039C33.8359 38.2773 34.1582 38.4141 34.5293 38.4141ZM43.1338 39.0879C42.5381 39.0879 42.001 38.9414 41.5225 38.6484C41.0439 38.3555 40.6631 37.96 40.3799 37.4619C40.0967 36.9639 39.9551 36.4121 39.9551 35.8066C39.9551 35.2109 40.0869 34.6689 40.3506 34.1807C40.624 33.6826 41 33.2822 41.4785 32.9795C41.957 32.6768 42.5088 32.5254 43.1338 32.5254C43.6514 32.5254 44.1104 32.6133 44.5107 32.7891C44.9209 32.9551 45.2139 33.1406 45.3896 33.3457C45.3896 33.6777 45.3311 33.9561 45.2139 34.1807C45.1064 34.3955 44.9404 34.5029 44.7158 34.5029C44.5303 34.5029 44.3789 34.4541 44.2617 34.3564C44.1543 34.2588 44.042 34.0977 43.9248 33.873C43.71 33.4238 43.3828 33.1992 42.9434 33.1992C42.5234 33.1992 42.1865 33.4141 41.9326 33.8438C41.6885 34.2637 41.5664 34.7959 41.5664 35.4404C41.5664 36.3193 41.7471 36.9736 42.1084 37.4033C42.4697 37.8232 42.9287 38.0332 43.4854 38.0332C43.7393 38.0332 43.9492 38.0137 44.1152 37.9746C44.2812 37.9355 44.4424 37.8916 44.5986 37.8428C44.6768 37.8135 44.7744 37.7646 44.8916 37.6963C45.0088 37.6182 45.1162 37.5498 45.2139 37.4912C45.3115 37.4229 45.3604 37.3887 45.3604 37.3887C45.3799 37.3984 45.4043 37.4277 45.4336 37.4766C45.4629 37.5254 45.4775 37.5742 45.4775 37.623C45.4775 37.8086 45.3604 38.0186 45.126 38.2529C44.9014 38.4775 44.6084 38.6729 44.2471 38.8389C43.8955 39.0049 43.5244 39.0879 43.1338 39.0879ZM49.5264 39.1025C49.0381 39.1025 48.6377 38.9707 48.3252 38.707C48.0225 38.4336 47.8711 38.0625 47.8711 37.5938C47.8711 37.2715 47.9736 36.9785 48.1787 36.7148C48.3936 36.4512 48.6914 36.2266 49.0723 36.041C49.209 35.9727 49.3311 35.9189 49.4385 35.8799C49.5557 35.8311 49.6631 35.7871 49.7607 35.748C50.1025 35.6406 50.3857 35.5527 50.6104 35.4844C50.8447 35.416 51.0107 35.3672 51.1084 35.3379C51.1963 35.2891 51.2402 35.2109 51.2402 35.1035V34.2979C51.2402 33.9561 51.1621 33.6875 51.0059 33.4922C50.8496 33.2969 50.6396 33.1992 50.376 33.1992C50.083 33.1992 49.8535 33.292 49.6875 33.4775C49.5215 33.6533 49.4385 33.9072 49.4385 34.2393C49.4385 34.4346 49.3652 34.5811 49.2188 34.6787C49.0723 34.7666 48.9062 34.8105 48.7207 34.8105C48.3594 34.8105 48.1055 34.6934 47.959 34.459C47.959 34.2246 48.0469 33.9951 48.2227 33.7705C48.3984 33.5361 48.6279 33.3262 48.9111 33.1406C49.2041 32.9551 49.5264 32.8086 49.8779 32.7012C50.2295 32.584 50.5811 32.5254 50.9326 32.5254C51.5381 32.5254 51.9922 32.6865 52.2949 33.0088C52.5977 33.3213 52.749 33.8633 52.749 34.6348V37.5205C52.749 37.9209 52.9102 38.1211 53.2324 38.1211C53.3789 38.1211 53.5449 38.0576 53.7305 37.9307C53.7891 37.9404 53.8184 37.9941 53.8184 38.0918C53.8184 38.2773 53.7891 38.4238 53.7305 38.5312C53.584 38.6484 53.3887 38.7705 53.1445 38.8975C52.9004 39.0244 52.666 39.0879 52.4414 39.0879C52.2168 39.0879 51.9971 39.0049 51.7822 38.8389C51.5674 38.6729 51.4258 38.4922 51.3574 38.2969C51.2793 38.3652 51.2207 38.4141 51.1816 38.4434C51.1426 38.4727 51.0791 38.5215 50.9912 38.5898C50.7861 38.7266 50.5615 38.8486 50.3174 38.9561C50.0732 39.0537 49.8096 39.1025 49.5264 39.1025ZM50.2734 38.1504C50.5371 38.1504 50.7617 38.082 50.9473 37.9453C51.1426 37.8086 51.2402 37.6523 51.2402 37.4766V35.9824L50.3027 36.3047C50.0781 36.4023 49.8779 36.5195 49.7021 36.6562C49.5264 36.793 49.4385 36.9883 49.4385 37.2422C49.4385 37.5547 49.5166 37.7842 49.6729 37.9307C49.8291 38.0771 50.0293 38.1504 50.2734 38.1504ZM59.127 39.0879C58.5312 39.0879 57.9941 38.9414 57.5156 38.6484C57.0371 38.3555 56.6562 37.96 56.373 37.4619C56.0898 36.9639 55.9482 36.4121 55.9482 35.8066C55.9482 35.2109 56.0801 34.6689 56.3438 34.1807C56.6172 33.6826 56.9932 33.2822 57.4717 32.9795C57.9502 32.6768 58.502 32.5254 59.127 32.5254C59.6445 32.5254 60.1035 32.6133 60.5039 32.7891C60.9141 32.9551 61.207 33.1406 61.3828 33.3457C61.3828 33.6777 61.3242 33.9561 61.207 34.1807C61.0996 34.3955 60.9336 34.5029 60.709 34.5029C60.5234 34.5029 60.3721 34.4541 60.2549 34.3564C60.1475 34.2588 60.0352 34.0977 59.918 33.873C59.7031 33.4238 59.376 33.1992 58.9365 33.1992C58.5166 33.1992 58.1797 33.4141 57.9258 33.8438C57.6816 34.2637 57.5596 34.7959 57.5596 35.4404C57.5596 36.3193 57.7402 36.9736 58.1016 37.4033C58.4629 37.8232 58.9219 38.0332 59.4785 38.0332C59.7324 38.0332 59.9424 38.0137 60.1084 37.9746C60.2744 37.9355 60.4355 37.8916 60.5918 37.8428C60.6699 37.8135 60.7676 37.7646 60.8848 37.6963C61.002 37.6182 61.1094 37.5498 61.207 37.4912C61.3047 37.4229 61.3535 37.3887 61.3535 37.3887C61.373 37.3984 61.3975 37.4277 61.4268 37.4766C61.4561 37.5254 61.4707 37.5742 61.4707 37.623C61.4707 37.8086 61.3535 38.0186 61.1191 38.2529C60.8945 38.4775 60.6016 38.6729 60.2402 38.8389C59.8887 39.0049 59.5176 39.0879 59.127 39.0879ZM63.8496 39.0439C63.8105 39.0049 63.791 38.9121 63.791 38.7656C63.791 38.6289 63.8105 38.5605 63.8496 38.5605C63.9277 38.5605 64.0303 38.541 64.1572 38.502C64.2842 38.4629 64.4014 38.4141 64.5088 38.3555C64.626 38.2969 64.6895 38.248 64.6992 38.209C64.7383 38.043 64.7676 37.8672 64.7871 37.6816C64.8066 37.4961 64.8164 37.3105 64.8164 37.125V34.7666C64.8164 34.3076 64.7383 33.9951 64.582 33.8291C64.4941 33.7217 64.3818 33.6484 64.2451 33.6094C64.1182 33.5703 64.001 33.5459 63.8936 33.5361C63.7959 33.5264 63.7471 33.5117 63.7471 33.4922C63.7471 33.1992 63.7715 33.0527 63.8203 33.0527C64.1328 33.0137 64.4746 32.96 64.8457 32.8916C65.2266 32.8135 65.5684 32.7402 65.8711 32.6719L66.3398 32.5547C66.4082 32.5547 66.4424 32.6523 66.4424 32.8477C66.4424 32.9746 66.4229 33.1602 66.3838 33.4043C66.3545 33.6387 66.3398 33.873 66.3398 34.1074V36.8906C66.3398 37.5059 66.374 37.9453 66.4424 38.209C66.4619 38.248 66.5254 38.2969 66.6328 38.3555C66.7402 38.4141 66.8574 38.4629 66.9844 38.502C67.1113 38.541 67.1992 38.5605 67.248 38.5605C67.2773 38.5605 67.292 38.6289 67.292 38.7656C67.3018 38.9023 67.2969 38.9951 67.2773 39.0439C66.9746 39.0244 66.667 39.0049 66.3545 38.9854C66.042 38.9658 65.7832 38.9561 65.5781 38.9561C65.2754 38.9561 64.9629 38.9658 64.6406 38.9854C64.3281 39.0049 64.0645 39.0244 63.8496 39.0439ZM65.4609 31.0312C65.2168 31.0312 65.0068 30.9434 64.8311 30.7676C64.6553 30.5918 64.5674 30.3818 64.5674 30.1377C64.5674 29.8936 64.6553 29.6885 64.8311 29.5225C65.0068 29.3467 65.2168 29.2588 65.4609 29.2588C65.7051 29.2588 65.9102 29.3467 66.0762 29.5225C66.252 29.6885 66.3398 29.8936 66.3398 30.1377C66.3398 30.3818 66.252 30.5918 66.0762 30.7676C65.9102 30.9434 65.7051 31.0312 65.4609 31.0312ZM71.165 39.1025C70.6768 39.1025 70.2764 38.9707 69.9639 38.707C69.6611 38.4336 69.5098 38.0625 69.5098 37.5938C69.5098 37.2715 69.6123 36.9785 69.8174 36.7148C70.0322 36.4512 70.3301 36.2266 70.7109 36.041C70.8477 35.9727 70.9697 35.9189 71.0771 35.8799C71.1943 35.8311 71.3018 35.7871 71.3994 35.748C71.7412 35.6406 72.0244 35.5527 72.249 35.4844C72.4834 35.416 72.6494 35.3672 72.7471 35.3379C72.835 35.2891 72.8789 35.2109 72.8789 35.1035V34.2979C72.8789 33.9561 72.8008 33.6875 72.6445 33.4922C72.4883 33.2969 72.2783 33.1992 72.0146 33.1992C71.7217 33.1992 71.4922 33.292 71.3262 33.4775C71.1602 33.6533 71.0771 33.9072 71.0771 34.2393C71.0771 34.4346 71.0039 34.5811 70.8574 34.6787C70.7109 34.7666 70.5449 34.8105 70.3594 34.8105C69.998 34.8105 69.7441 34.6934 69.5977 34.459C69.5977 34.2246 69.6855 33.9951 69.8613 33.7705C70.0371 33.5361 70.2666 33.3262 70.5498 33.1406C70.8428 32.9551 71.165 32.8086 71.5166 32.7012C71.8682 32.584 72.2197 32.5254 72.5713 32.5254C73.1768 32.5254 73.6309 32.6865 73.9336 33.0088C74.2363 33.3213 74.3877 33.8633 74.3877 34.6348V37.5205C74.3877 37.9209 74.5488 38.1211 74.8711 38.1211C75.0176 38.1211 75.1836 38.0576 75.3691 37.9307C75.4277 37.9404 75.457 37.9941 75.457 38.0918C75.457 38.2773 75.4277 38.4238 75.3691 38.5312C75.2227 38.6484 75.0273 38.7705 74.7832 38.8975C74.5391 39.0244 74.3047 39.0879 74.0801 39.0879C73.8555 39.0879 73.6357 39.0049 73.4209 38.8389C73.2061 38.6729 73.0645 38.4922 72.9961 38.2969C72.918 38.3652 72.8594 38.4141 72.8203 38.4434C72.7812 38.4727 72.7178 38.5215 72.6299 38.5898C72.4248 38.7266 72.2002 38.8486 71.9561 38.9561C71.7119 39.0537 71.4482 39.1025 71.165 39.1025ZM71.9121 38.1504C72.1758 38.1504 72.4004 38.082 72.5859 37.9453C72.7812 37.8086 72.8789 37.6523 72.8789 37.4766V35.9824L71.9414 36.3047C71.7168 36.4023 71.5166 36.5195 71.3408 36.6562C71.165 36.793 71.0771 36.9883 71.0771 37.2422C71.0771 37.5547 71.1553 37.7842 71.3115 37.9307C71.4678 38.0771 71.668 38.1504 71.9121 38.1504ZM86.8066 39.0879C86.1621 39.0879 85.5566 38.9609 84.9902 38.707C84.4336 38.4531 83.9404 38.1064 83.5107 37.667C83.0811 37.2275 82.7441 36.7197 82.5 36.1436C82.2656 35.5576 82.1484 34.9375 82.1484 34.2832C82.1484 33.5898 82.2705 32.9404 82.5146 32.335C82.7588 31.7197 83.1006 31.1826 83.54 30.7236C83.9795 30.2549 84.4922 29.8887 85.0781 29.625C85.6641 29.3613 86.2939 29.2295 86.9678 29.2295C88.0713 29.2295 89.2236 29.3613 90.4248 29.625C90.4443 29.625 90.459 29.7227 90.4688 29.918C90.4883 30.1035 90.5029 30.3281 90.5127 30.5918C90.5225 30.8457 90.5322 31.085 90.542 31.3096C90.5518 31.5342 90.5566 31.6855 90.5566 31.7637C90.5566 31.9102 90.4395 31.9834 90.2051 31.9834C90.1367 31.9834 90.0684 31.9639 90 31.9248C89.9609 31.749 89.8877 31.5684 89.7803 31.3828C89.6826 31.1973 89.5312 30.9873 89.3262 30.7529C89.1211 30.5186 88.8184 30.3281 88.418 30.1816C88.0176 30.0254 87.5537 29.9473 87.0264 29.9473C86.3916 29.9473 85.8447 30.1328 85.3857 30.5039C84.9365 30.8652 84.5898 31.3486 84.3457 31.9541C84.1113 32.5596 83.9941 33.2334 83.9941 33.9756C83.9941 34.7959 84.126 35.5381 84.3896 36.2021C84.6631 36.8662 85.0586 37.3984 85.5762 37.7988C86.0938 38.1895 86.7139 38.3848 87.4365 38.3848C88.2959 38.3848 88.9844 38.1113 89.502 37.5645C89.6582 37.3984 89.7754 37.2129 89.8535 37.0078C89.9414 36.793 90.0098 36.6074 90.0586 36.4512C90.1074 36.2852 90.1514 36.2021 90.1904 36.2021C90.5322 36.2021 90.7227 36.2461 90.7617 36.334C90.7617 36.3926 90.7373 36.5342 90.6885 36.7588C90.6494 36.9736 90.6006 37.2129 90.542 37.4766C90.4834 37.7305 90.4199 37.9551 90.3516 38.1504C90.293 38.3457 90.2441 38.4531 90.2051 38.4727C89.3555 38.8828 88.2227 39.0879 86.8066 39.0879ZM96.3633 39.1025C95.748 39.1025 95.1865 38.9561 94.6787 38.6631C94.1807 38.3604 93.7803 37.96 93.4775 37.4619C93.1846 36.9639 93.0381 36.4121 93.0381 35.8066C93.0381 35.1914 93.1846 34.6396 93.4775 34.1514C93.7705 33.6533 94.166 33.2578 94.6641 32.9648C95.1719 32.6719 95.7334 32.5254 96.3486 32.5254C96.9639 32.5254 97.5205 32.6719 98.0186 32.9648C98.5264 33.2578 98.9268 33.6533 99.2197 34.1514C99.5225 34.6494 99.6738 35.2012 99.6738 35.8066C99.6738 36.4121 99.5273 36.9639 99.2344 37.4619C98.9414 37.96 98.5459 38.3604 98.0479 38.6631C97.5498 38.9561 96.9883 39.1025 96.3633 39.1025ZM96.5098 38.4141C96.8223 38.4141 97.0859 38.3115 97.3008 38.1064C97.5156 37.9014 97.6816 37.6279 97.7988 37.2861C97.916 36.9346 97.9746 36.5586 97.9746 36.1582C97.9746 35.6309 97.9014 35.1475 97.7549 34.708C97.6182 34.2588 97.4131 33.8975 97.1396 33.624C96.876 33.3506 96.5488 33.2139 96.1582 33.2139C95.8555 33.2139 95.5918 33.3164 95.3672 33.5215C95.1523 33.7266 94.9863 34 94.8691 34.3418C94.7617 34.6836 94.708 35.0596 94.708 35.4697C94.708 35.9971 94.7764 36.4854 94.9131 36.9346C95.0596 37.374 95.2695 37.7305 95.543 38.0039C95.8164 38.2773 96.1387 38.4141 96.5098 38.4141ZM102.038 39.0586C101.999 39.0195 101.979 38.9268 101.979 38.7803C101.979 38.6338 101.999 38.5605 102.038 38.5605C102.116 38.5605 102.224 38.5459 102.36 38.5166C102.507 38.4775 102.639 38.4336 102.756 38.3848C102.883 38.3262 102.951 38.2773 102.961 38.2383C103.029 37.9648 103.063 37.6084 103.063 37.1689V34.7812C103.063 34.3418 102.985 34.0293 102.829 33.8438C102.741 33.7363 102.629 33.668 102.492 33.6387C102.365 33.5996 102.253 33.5752 102.155 33.5654C102.058 33.5459 102.009 33.5215 102.009 33.4922C102.009 33.2188 102.033 33.0723 102.082 33.0527C102.307 33.0332 102.634 32.9844 103.063 32.9062C103.503 32.8281 103.913 32.7402 104.294 32.6426C104.313 32.6328 104.357 32.623 104.426 32.6133C104.504 32.5938 104.548 32.584 104.558 32.584C104.597 32.584 104.631 32.6182 104.66 32.6865C104.689 32.7549 104.704 32.8086 104.704 32.8477C104.685 32.9844 104.67 33.0967 104.66 33.1846C104.65 33.2725 104.646 33.3359 104.646 33.375C104.646 33.4238 104.655 33.4482 104.675 33.4482C104.685 33.4482 104.704 33.4336 104.733 33.4043C104.968 33.1699 105.266 32.9648 105.627 32.7891C105.998 32.6133 106.374 32.5254 106.755 32.5254C108.015 32.5254 108.645 33.5264 108.645 35.5283V36.9199C108.645 37.5352 108.679 37.9746 108.747 38.2383C108.767 38.2773 108.835 38.3262 108.952 38.3848C109.079 38.4336 109.211 38.4775 109.348 38.5166C109.494 38.5459 109.597 38.5605 109.655 38.5605C109.685 38.5605 109.699 38.6338 109.699 38.7803C109.709 38.917 109.704 39.0098 109.685 39.0586C109.646 39.0488 109.509 39.0342 109.274 39.0146C109.05 39.0049 108.801 38.9951 108.527 38.9854C108.264 38.9658 108.054 38.9561 107.897 38.9561C107.741 38.9561 107.536 38.9658 107.282 38.9854C107.038 38.9951 106.804 39.0049 106.579 39.0146C106.364 39.0342 106.228 39.0488 106.169 39.0586C106.13 39.0195 106.11 38.9268 106.11 38.7803C106.11 38.6338 106.13 38.5605 106.169 38.5605C106.247 38.5605 106.35 38.5459 106.477 38.5166C106.604 38.4775 106.721 38.4336 106.828 38.3848C106.945 38.3262 107.009 38.2773 107.019 38.2383C107.058 38.0918 107.087 37.9307 107.106 37.7549C107.126 37.5791 107.136 37.3838 107.136 37.1689V35.7773C107.136 34.9668 107.023 34.4004 106.799 34.0781C106.584 33.7559 106.237 33.5947 105.759 33.5947C105.446 33.5947 105.173 33.6826 104.938 33.8584C104.704 34.0244 104.587 34.2051 104.587 34.4004V36.9199C104.587 37.5352 104.621 37.9746 104.689 38.2383C104.709 38.2773 104.777 38.3262 104.895 38.3848C105.012 38.4336 105.139 38.4775 105.275 38.5166C105.412 38.5459 105.505 38.5605 105.554 38.5605C105.593 38.5605 105.612 38.6338 105.612 38.7803C105.622 38.917 105.617 39.0098 105.598 39.0586C105.549 39.0488 105.407 39.0342 105.173 39.0146C104.948 39.0049 104.709 38.9951 104.455 38.9854C104.201 38.9658 103.996 38.9561 103.84 38.9561C103.684 38.9561 103.474 38.9658 103.21 38.9854C102.946 38.9951 102.697 39.0049 102.463 39.0146C102.238 39.0342 102.097 39.0488 102.038 39.0586ZM114.7 39.1025C114.192 39.1025 113.758 38.9414 113.396 38.6191C113.045 38.2871 112.869 37.7793 112.869 37.0957V33.5508H111.976C111.907 33.5508 111.873 33.4238 111.873 33.1699C111.873 33.0918 111.878 33.0479 111.888 33.0381C112.083 32.9502 112.273 32.8428 112.459 32.7158C112.645 32.5791 112.83 32.4277 113.016 32.2617C113.299 31.9785 113.528 31.7344 113.704 31.5293C113.88 31.3145 113.968 31.207 113.968 31.207C114.017 31.207 114.065 31.2119 114.114 31.2217C114.163 31.2217 114.207 31.2266 114.246 31.2363C114.334 31.2656 114.378 31.2949 114.378 31.3242V32.7598H115.447C115.672 32.7598 115.843 32.7646 115.96 32.7744C116.087 32.7744 116.155 32.7744 116.165 32.7744C116.243 32.7744 116.282 32.8184 116.282 32.9062C116.282 33.1504 116.233 33.3652 116.136 33.5508H114.378V37.0811C114.378 37.4717 114.461 37.7695 114.627 37.9746C114.793 38.1797 115.022 38.2822 115.315 38.2822C115.521 38.2822 115.711 38.2432 115.887 38.165C116.062 38.0771 116.16 38.0332 116.18 38.0332C116.219 38.0234 116.263 38.0674 116.312 38.165C116.36 38.2627 116.38 38.3262 116.37 38.3555C116.331 38.4434 116.219 38.5459 116.033 38.6631C115.857 38.7803 115.647 38.8828 115.403 38.9707C115.169 39.0586 114.935 39.1025 114.7 39.1025ZM121.737 39.0879C121.171 39.0879 120.648 38.9463 120.17 38.6631C119.701 38.3701 119.325 37.9795 119.042 37.4912C118.759 36.9932 118.617 36.4463 118.617 35.8506C118.617 35.1865 118.749 34.6055 119.013 34.1074C119.276 33.6094 119.633 33.2236 120.082 32.9502C120.541 32.667 121.063 32.5254 121.649 32.5254C122.128 32.5254 122.538 32.6133 122.88 32.7891C123.222 32.9648 123.5 33.1943 123.715 33.4775C123.939 33.751 124.101 34.0439 124.198 34.3564C124.306 34.6592 124.359 34.9424 124.359 35.2061C124.359 35.4209 124.32 35.5576 124.242 35.6162C124.174 35.665 124.027 35.6895 123.803 35.6895H120.302C120.233 35.6895 120.199 35.7188 120.199 35.7773C120.199 36.1387 120.263 36.4805 120.39 36.8027C120.517 37.1348 120.731 37.4229 121.034 37.667C121.347 37.9111 121.718 38.0332 122.147 38.0332C122.401 38.0332 122.611 38.0137 122.777 37.9746C122.943 37.9355 123.104 37.8916 123.261 37.8428C123.339 37.8135 123.437 37.7646 123.554 37.6963C123.671 37.6182 123.778 37.5498 123.876 37.4912C123.974 37.4229 124.022 37.3887 124.022 37.3887C124.042 37.3984 124.066 37.4277 124.096 37.4766C124.125 37.5254 124.14 37.5742 124.14 37.623C124.14 37.7305 124.11 37.8232 124.052 37.9014C123.954 38.0771 123.788 38.2578 123.554 38.4434C123.329 38.6191 123.061 38.7705 122.748 38.8975C122.436 39.0244 122.099 39.0879 121.737 39.0879ZM120.302 34.9863H122.675C122.763 34.9863 122.807 34.9131 122.807 34.7666C122.807 34.5322 122.753 34.2979 122.646 34.0635C122.548 33.8193 122.401 33.6143 122.206 33.4482C122.021 33.2822 121.801 33.1992 121.547 33.1992C121.244 33.1992 120.99 33.3018 120.785 33.5068C120.59 33.7119 120.443 33.9463 120.346 34.21C120.258 34.4736 120.214 34.6982 120.214 34.8838C120.214 34.9521 120.243 34.9863 120.302 34.9863ZM126.606 39.0586C126.567 39.0195 126.548 38.9268 126.548 38.7803C126.548 38.6338 126.567 38.5605 126.606 38.5605C126.685 38.5605 126.792 38.5459 126.929 38.5166C127.075 38.4775 127.207 38.4336 127.324 38.3848C127.451 38.3262 127.52 38.2773 127.529 38.2383C127.598 37.9648 127.632 37.6084 127.632 37.1689V34.7812C127.632 34.3418 127.554 34.0293 127.397 33.8438C127.31 33.7363 127.197 33.668 127.061 33.6387C126.934 33.5996 126.821 33.5752 126.724 33.5654C126.626 33.5459 126.577 33.5215 126.577 33.4922C126.577 33.2188 126.602 33.0723 126.65 33.0527C126.875 33.0332 127.202 32.9844 127.632 32.9062C128.071 32.8281 128.481 32.7402 128.862 32.6426C128.882 32.6328 128.926 32.623 128.994 32.6133C129.072 32.5938 129.116 32.584 129.126 32.584C129.165 32.584 129.199 32.6182 129.229 32.6865C129.258 32.7549 129.272 32.8086 129.272 32.8477C129.253 32.9844 129.238 33.0967 129.229 33.1846C129.219 33.2725 129.214 33.3359 129.214 33.375C129.214 33.4238 129.224 33.4482 129.243 33.4482C129.253 33.4482 129.272 33.4336 129.302 33.4043C129.536 33.1699 129.834 32.9648 130.195 32.7891C130.566 32.6133 130.942 32.5254 131.323 32.5254C132.583 32.5254 133.213 33.5264 133.213 35.5283V36.9199C133.213 37.5352 133.247 37.9746 133.315 38.2383C133.335 38.2773 133.403 38.3262 133.521 38.3848C133.647 38.4336 133.779 38.4775 133.916 38.5166C134.062 38.5459 134.165 38.5605 134.224 38.5605C134.253 38.5605 134.268 38.6338 134.268 38.7803C134.277 38.917 134.272 39.0098 134.253 39.0586C134.214 39.0488 134.077 39.0342 133.843 39.0146C133.618 39.0049 133.369 38.9951 133.096 38.9854C132.832 38.9658 132.622 38.9561 132.466 38.9561C132.31 38.9561 132.104 38.9658 131.851 38.9854C131.606 38.9951 131.372 39.0049 131.147 39.0146C130.933 39.0342 130.796 39.0488 130.737 39.0586C130.698 39.0195 130.679 38.9268 130.679 38.7803C130.679 38.6338 130.698 38.5605 130.737 38.5605C130.815 38.5605 130.918 38.5459 131.045 38.5166C131.172 38.4775 131.289 38.4336 131.396 38.3848C131.514 38.3262 131.577 38.2773 131.587 38.2383C131.626 38.0918 131.655 37.9307 131.675 37.7549C131.694 37.5791 131.704 37.3838 131.704 37.1689V35.7773C131.704 34.9668 131.592 34.4004 131.367 34.0781C131.152 33.7559 130.806 33.5947 130.327 33.5947C130.015 33.5947 129.741 33.6826 129.507 33.8584C129.272 34.0244 129.155 34.2051 129.155 34.4004V36.9199C129.155 37.5352 129.189 37.9746 129.258 38.2383C129.277 38.2773 129.346 38.3262 129.463 38.3848C129.58 38.4336 129.707 38.4775 129.844 38.5166C129.98 38.5459 130.073 38.5605 130.122 38.5605C130.161 38.5605 130.181 38.6338 130.181 38.7803C130.19 38.917 130.186 39.0098 130.166 39.0586C130.117 39.0488 129.976 39.0342 129.741 39.0146C129.517 39.0049 129.277 38.9951 129.023 38.9854C128.77 38.9658 128.564 38.9561 128.408 38.9561C128.252 38.9561 128.042 38.9658 127.778 38.9854C127.515 38.9951 127.266 39.0049 127.031 39.0146C126.807 39.0342 126.665 39.0488 126.606 39.0586ZM139.737 39.0879C139.142 39.0879 138.604 38.9414 138.126 38.6484C137.647 38.3555 137.267 37.96 136.983 37.4619C136.7 36.9639 136.559 36.4121 136.559 35.8066C136.559 35.2109 136.69 34.6689 136.954 34.1807C137.228 33.6826 137.604 33.2822 138.082 32.9795C138.561 32.6768 139.112 32.5254 139.737 32.5254C140.255 32.5254 140.714 32.6133 141.114 32.7891C141.524 32.9551 141.817 33.1406 141.993 33.3457C141.993 33.6777 141.935 33.9561 141.817 34.1807C141.71 34.3955 141.544 34.5029 141.319 34.5029C141.134 34.5029 140.982 34.4541 140.865 34.3564C140.758 34.2588 140.646 34.0977 140.528 33.873C140.313 33.4238 139.986 33.1992 139.547 33.1992C139.127 33.1992 138.79 33.4141 138.536 33.8438C138.292 34.2637 138.17 34.7959 138.17 35.4404C138.17 36.3193 138.351 36.9736 138.712 37.4033C139.073 37.8232 139.532 38.0332 140.089 38.0332C140.343 38.0332 140.553 38.0137 140.719 37.9746C140.885 37.9355 141.046 37.8916 141.202 37.8428C141.28 37.8135 141.378 37.7646 141.495 37.6963C141.612 37.6182 141.72 37.5498 141.817 37.4912C141.915 37.4229 141.964 37.3887 141.964 37.3887C141.983 37.3984 142.008 37.4277 142.037 37.4766C142.066 37.5254 142.081 37.5742 142.081 37.623C142.081 37.8086 141.964 38.0186 141.729 38.2529C141.505 38.4775 141.212 38.6729 140.851 38.8389C140.499 39.0049 140.128 39.0879 139.737 39.0879ZM144.46 39.0439C144.421 39.0049 144.401 38.9121 144.401 38.7656C144.401 38.6289 144.421 38.5605 144.46 38.5605C144.538 38.5605 144.641 38.541 144.768 38.502C144.895 38.4629 145.012 38.4141 145.119 38.3555C145.236 38.2969 145.3 38.248 145.31 38.209C145.349 38.043 145.378 37.8672 145.397 37.6816C145.417 37.4961 145.427 37.3105 145.427 37.125V34.7666C145.427 34.3076 145.349 33.9951 145.192 33.8291C145.104 33.7217 144.992 33.6484 144.855 33.6094C144.729 33.5703 144.611 33.5459 144.504 33.5361C144.406 33.5264 144.357 33.5117 144.357 33.4922C144.357 33.1992 144.382 33.0527 144.431 33.0527C144.743 33.0137 145.085 32.96 145.456 32.8916C145.837 32.8135 146.179 32.7402 146.481 32.6719L146.95 32.5547C147.019 32.5547 147.053 32.6523 147.053 32.8477C147.053 32.9746 147.033 33.1602 146.994 33.4043C146.965 33.6387 146.95 33.873 146.95 34.1074V36.8906C146.95 37.5059 146.984 37.9453 147.053 38.209C147.072 38.248 147.136 38.2969 147.243 38.3555C147.351 38.4141 147.468 38.4629 147.595 38.502C147.722 38.541 147.81 38.5605 147.858 38.5605C147.888 38.5605 147.902 38.6289 147.902 38.7656C147.912 38.9023 147.907 38.9951 147.888 39.0439C147.585 39.0244 147.277 39.0049 146.965 38.9854C146.652 38.9658 146.394 38.9561 146.188 38.9561C145.886 38.9561 145.573 38.9658 145.251 38.9854C144.938 39.0049 144.675 39.0244 144.46 39.0439ZM146.071 31.0312C145.827 31.0312 145.617 30.9434 145.441 30.7676C145.266 30.5918 145.178 30.3818 145.178 30.1377C145.178 29.8936 145.266 29.6885 145.441 29.5225C145.617 29.3467 145.827 29.2588 146.071 29.2588C146.315 29.2588 146.521 29.3467 146.687 29.5225C146.862 29.6885 146.95 29.8936 146.95 30.1377C146.95 30.3818 146.862 30.5918 146.687 30.7676C146.521 30.9434 146.315 31.0312 146.071 31.0312ZM153.431 39.1025C152.815 39.1025 152.254 38.9561 151.746 38.6631C151.248 38.3604 150.848 37.96 150.545 37.4619C150.252 36.9639 150.105 36.4121 150.105 35.8066C150.105 35.1914 150.252 34.6396 150.545 34.1514C150.838 33.6533 151.233 33.2578 151.731 32.9648C152.239 32.6719 152.801 32.5254 153.416 32.5254C154.031 32.5254 154.588 32.6719 155.086 32.9648C155.594 33.2578 155.994 33.6533 156.287 34.1514C156.59 34.6494 156.741 35.2012 156.741 35.8066C156.741 36.4121 156.595 36.9639 156.302 37.4619C156.009 37.96 155.613 38.3604 155.115 38.6631C154.617 38.9561 154.056 39.1025 153.431 39.1025ZM153.577 38.4141C153.89 38.4141 154.153 38.3115 154.368 38.1064C154.583 37.9014 154.749 37.6279 154.866 37.2861C154.983 36.9346 155.042 36.5586 155.042 36.1582C155.042 35.6309 154.969 35.1475 154.822 34.708C154.686 34.2588 154.48 33.8975 154.207 33.624C153.943 33.3506 153.616 33.2139 153.226 33.2139C152.923 33.2139 152.659 33.3164 152.435 33.5215C152.22 33.7266 152.054 34 151.937 34.3418C151.829 34.6836 151.775 35.0596 151.775 35.4697C151.775 35.9971 151.844 36.4854 151.98 36.9346C152.127 37.374 152.337 37.7305 152.61 38.0039C152.884 38.2773 153.206 38.4141 153.577 38.4141ZM161.156 39.1465C160.541 39.1465 159.911 39.0098 159.267 38.7363C159.237 38.6191 159.203 38.4531 159.164 38.2383C159.135 38.0234 159.105 37.8086 159.076 37.5938C159.057 37.3691 159.047 37.1982 159.047 37.0811C159.115 37.0322 159.184 37.0078 159.252 37.0078C159.467 37.0078 159.584 37.0469 159.604 37.125C159.682 37.5352 159.872 37.8672 160.175 38.1211C160.487 38.3652 160.824 38.4873 161.186 38.4873C161.459 38.4873 161.684 38.4189 161.859 38.2822C162.035 38.1357 162.123 37.9209 162.123 37.6377C162.123 37.4326 162.045 37.2471 161.889 37.0811C161.732 36.9053 161.586 36.7832 161.449 36.7148L160.482 36.2021C160.033 35.9678 159.687 35.709 159.442 35.4258C159.198 35.1328 159.076 34.7812 159.076 34.3711C159.076 33.9707 159.184 33.6338 159.398 33.3604C159.623 33.0869 159.911 32.877 160.263 32.7305C160.624 32.584 161.01 32.5107 161.42 32.5107C161.947 32.5107 162.514 32.5938 163.119 32.7598C163.168 32.9746 163.202 33.2188 163.222 33.4922C163.251 33.7656 163.271 34.0684 163.28 34.4004C163.28 34.4785 163.217 34.5176 163.09 34.5176C162.875 34.5176 162.758 34.4785 162.738 34.4004C162.67 34.0586 162.523 33.7705 162.299 33.5361C162.084 33.292 161.791 33.1699 161.42 33.1699C161.137 33.1699 160.912 33.2334 160.746 33.3604C160.59 33.4873 160.512 33.668 160.512 33.9023C160.512 34.1562 160.609 34.3711 160.805 34.5469C161 34.7227 161.264 34.8936 161.596 35.0596C161.85 35.1865 162.094 35.3232 162.328 35.4697C162.572 35.6162 162.802 35.7773 163.017 35.9531C163.397 36.2559 163.588 36.6562 163.588 37.1543C163.588 37.5645 163.476 37.9209 163.251 38.2236C163.036 38.5166 162.743 38.7461 162.372 38.9121C162.011 39.0684 161.605 39.1465 161.156 39.1465ZM168.032 39.1025C167.544 39.1025 167.144 38.9707 166.831 38.707C166.528 38.4336 166.377 38.0625 166.377 37.5938C166.377 37.2715 166.479 36.9785 166.685 36.7148C166.899 36.4512 167.197 36.2266 167.578 36.041C167.715 35.9727 167.837 35.9189 167.944 35.8799C168.062 35.8311 168.169 35.7871 168.267 35.748C168.608 35.6406 168.892 35.5527 169.116 35.4844C169.351 35.416 169.517 35.3672 169.614 35.3379C169.702 35.2891 169.746 35.2109 169.746 35.1035V34.2979C169.746 33.9561 169.668 33.6875 169.512 33.4922C169.355 33.2969 169.146 33.1992 168.882 33.1992C168.589 33.1992 168.359 33.292 168.193 33.4775C168.027 33.6533 167.944 33.9072 167.944 34.2393C167.944 34.4346 167.871 34.5811 167.725 34.6787C167.578 34.7666 167.412 34.8105 167.227 34.8105C166.865 34.8105 166.611 34.6934 166.465 34.459C166.465 34.2246 166.553 33.9951 166.729 33.7705C166.904 33.5361 167.134 33.3262 167.417 33.1406C167.71 32.9551 168.032 32.8086 168.384 32.7012C168.735 32.584 169.087 32.5254 169.438 32.5254C170.044 32.5254 170.498 32.6865 170.801 33.0088C171.104 33.3213 171.255 33.8633 171.255 34.6348V37.5205C171.255 37.9209 171.416 38.1211 171.738 38.1211C171.885 38.1211 172.051 38.0576 172.236 37.9307C172.295 37.9404 172.324 37.9941 172.324 38.0918C172.324 38.2773 172.295 38.4238 172.236 38.5312C172.09 38.6484 171.895 38.7705 171.65 38.8975C171.406 39.0244 171.172 39.0879 170.947 39.0879C170.723 39.0879 170.503 39.0049 170.288 38.8389C170.073 38.6729 169.932 38.4922 169.863 38.2969C169.785 38.3652 169.727 38.4141 169.688 38.4434C169.648 38.4727 169.585 38.5215 169.497 38.5898C169.292 38.7266 169.067 38.8486 168.823 38.9561C168.579 39.0537 168.315 39.1025 168.032 39.1025ZM168.779 38.1504C169.043 38.1504 169.268 38.082 169.453 37.9453C169.648 37.8086 169.746 37.6523 169.746 37.4766V35.9824L168.809 36.3047C168.584 36.4023 168.384 36.5195 168.208 36.6562C168.032 36.793 167.944 36.9883 167.944 37.2422C167.944 37.5547 168.022 37.7842 168.179 37.9307C168.335 38.0771 168.535 38.1504 168.779 38.1504ZM182.136 39.0879C181.569 39.0879 181.047 38.9463 180.568 38.6631C180.1 38.3701 179.724 37.9795 179.44 37.4912C179.157 36.9932 179.016 36.4463 179.016 35.8506C179.016 35.1865 179.147 34.6055 179.411 34.1074C179.675 33.6094 180.031 33.2236 180.48 32.9502C180.939 32.667 181.462 32.5254 182.048 32.5254C182.526 32.5254 182.937 32.6133 183.278 32.7891C183.62 32.9648 183.898 33.1943 184.113 33.4775C184.338 33.751 184.499 34.0439 184.597 34.3564C184.704 34.6592 184.758 34.9424 184.758 35.2061C184.758 35.4209 184.719 35.5576 184.641 35.6162C184.572 35.665 184.426 35.6895 184.201 35.6895H180.7C180.632 35.6895 180.598 35.7188 180.598 35.7773C180.598 36.1387 180.661 36.4805 180.788 36.8027C180.915 37.1348 181.13 37.4229 181.433 37.667C181.745 37.9111 182.116 38.0332 182.546 38.0332C182.8 38.0332 183.01 38.0137 183.176 37.9746C183.342 37.9355 183.503 37.8916 183.659 37.8428C183.737 37.8135 183.835 37.7646 183.952 37.6963C184.069 37.6182 184.177 37.5498 184.274 37.4912C184.372 37.4229 184.421 37.3887 184.421 37.3887C184.44 37.3984 184.465 37.4277 184.494 37.4766C184.523 37.5254 184.538 37.5742 184.538 37.623C184.538 37.7305 184.509 37.8232 184.45 37.9014C184.353 38.0771 184.187 38.2578 183.952 38.4434C183.728 38.6191 183.459 38.7705 183.146 38.8975C182.834 39.0244 182.497 39.0879 182.136 39.0879ZM180.7 34.9863H183.073C183.161 34.9863 183.205 34.9131 183.205 34.7666C183.205 34.5322 183.151 34.2979 183.044 34.0635C182.946 33.8193 182.8 33.6143 182.604 33.4482C182.419 33.2822 182.199 33.1992 181.945 33.1992C181.643 33.1992 181.389 33.3018 181.184 33.5068C180.988 33.7119 180.842 33.9463 180.744 34.21C180.656 34.4736 180.612 34.6982 180.612 34.8838C180.612 34.9521 180.642 34.9863 180.7 34.9863ZM191.537 39.0586C191.508 39.0098 191.493 38.9219 191.493 38.7949C191.493 38.6387 191.508 38.5605 191.537 38.5605C191.625 38.5605 191.742 38.5459 191.889 38.5166C192.035 38.4873 192.172 38.4482 192.299 38.3994C192.436 38.3506 192.514 38.2969 192.533 38.2383C192.592 38.0625 192.621 37.6182 192.621 36.9053V31.3682C192.621 30.8115 192.592 30.4111 192.533 30.167C192.514 30.1084 192.436 30.0547 192.299 30.0059C192.172 29.9473 192.03 29.8984 191.874 29.8594C191.728 29.8203 191.615 29.8008 191.537 29.8008C191.498 29.8008 191.479 29.7275 191.479 29.5811C191.479 29.4346 191.498 29.3467 191.537 29.3174C192.562 29.3467 193.212 29.3613 193.485 29.3613C193.622 29.3613 193.773 29.3613 193.939 29.3613C194.105 29.3516 194.281 29.3418 194.467 29.332L195.463 29.3174C195.756 29.3174 196.044 29.3467 196.327 29.4053C196.62 29.4541 196.913 29.5469 197.206 29.6836C197.675 29.8984 198.041 30.2061 198.305 30.6064C198.578 30.9971 198.715 31.4609 198.715 31.998C198.715 32.457 198.598 32.9062 198.363 33.3457C198.119 33.7852 197.753 34.1611 197.265 34.4736C196.786 34.7764 196.244 34.9277 195.639 34.9277C195.434 34.9277 195.229 34.8936 195.023 34.8252C194.818 34.7471 194.677 34.6543 194.599 34.5469C194.53 34.4785 194.501 34.3857 194.511 34.2686C194.53 34.1416 194.555 34.0781 194.584 34.0781C194.789 34.1758 195.062 34.2246 195.404 34.2246C195.873 34.2246 196.244 34.0342 196.518 33.6533C196.791 33.2627 196.928 32.7744 196.928 32.1885C196.928 31.5342 196.796 31.0166 196.532 30.6357C196.269 30.2549 195.863 30.0645 195.316 30.0645C194.896 30.0645 194.613 30.0986 194.467 30.167C194.35 30.2256 194.291 30.7334 194.291 31.6904V36.9199C194.291 37.4863 194.33 37.9014 194.408 38.165C194.428 38.2432 194.511 38.3115 194.657 38.3701C194.813 38.4287 194.979 38.4775 195.155 38.5166C195.331 38.5459 195.463 38.5605 195.551 38.5605C195.59 38.5605 195.609 38.6436 195.609 38.8096C195.609 38.8975 195.6 38.9805 195.58 39.0586C194.516 39 193.822 38.9707 193.5 38.9707C193.236 38.9707 192.938 38.9805 192.606 39C192.284 39.0098 192.025 39.0195 191.83 39.0293L191.537 39.0586ZM201.064 39.0586C201.025 39.0195 201.006 38.9268 201.006 38.7803C201.006 38.6338 201.025 38.5605 201.064 38.5605C201.143 38.5605 201.25 38.5459 201.387 38.5166C201.533 38.4775 201.665 38.4336 201.782 38.3848C201.909 38.3262 201.978 38.2773 201.987 38.2383C202.056 37.9648 202.09 37.6084 202.09 37.1689V34.7812C202.09 34.3125 202.012 34 201.855 33.8438C201.768 33.7363 201.66 33.6631 201.533 33.624C201.406 33.5752 201.289 33.5459 201.182 33.5361C201.084 33.5264 201.035 33.5117 201.035 33.4922C201.035 33.2188 201.06 33.0723 201.108 33.0527C201.392 33.0332 201.699 32.9893 202.031 32.9209C202.373 32.8428 202.769 32.7598 203.218 32.6719C203.364 32.6426 203.457 32.623 203.496 32.6133C203.545 32.5938 203.574 32.584 203.584 32.584C203.623 32.584 203.657 32.6182 203.687 32.6865C203.716 32.7451 203.73 32.7988 203.73 32.8477C203.672 33.2578 203.643 33.4922 203.643 33.5508C203.818 33.2871 204.058 33.0527 204.36 32.8477C204.663 32.6328 204.971 32.5254 205.283 32.5254C205.82 32.5254 206.221 32.6865 206.484 33.0088C206.484 33.8389 206.25 34.2539 205.781 34.2539C205.615 34.2539 205.425 34.1562 205.21 33.9609C204.995 33.7656 204.785 33.668 204.58 33.668C204.375 33.668 204.199 33.7412 204.053 33.8877C203.906 34.0342 203.794 34.2148 203.716 34.4297C203.647 34.6445 203.613 34.8643 203.613 35.0889V36.9199C203.613 37.5352 203.647 37.9746 203.716 38.2383C203.735 38.2773 203.804 38.3262 203.921 38.3848C204.038 38.4336 204.165 38.4775 204.302 38.5166C204.438 38.5459 204.536 38.5605 204.595 38.5605C204.624 38.5605 204.639 38.6338 204.639 38.7803C204.648 38.917 204.648 39.0098 204.639 39.0586C204.59 39.0488 204.448 39.0342 204.214 39.0146C203.989 39.0049 203.745 38.9951 203.481 38.9854C203.228 38.9658 203.022 38.9561 202.866 38.9561C202.71 38.9561 202.5 38.9658 202.236 38.9854C201.973 38.9951 201.724 39.0049 201.489 39.0146C201.265 39.0342 201.123 39.0488 201.064 39.0586ZM211.881 39.0879C211.314 39.0879 210.792 38.9463 210.313 38.6631C209.845 38.3701 209.469 37.9795 209.186 37.4912C208.902 36.9932 208.761 36.4463 208.761 35.8506C208.761 35.1865 208.893 34.6055 209.156 34.1074C209.42 33.6094 209.776 33.2236 210.226 32.9502C210.685 32.667 211.207 32.5254 211.793 32.5254C212.271 32.5254 212.682 32.6133 213.023 32.7891C213.365 32.9648 213.644 33.1943 213.858 33.4775C214.083 33.751 214.244 34.0439 214.342 34.3564C214.449 34.6592 214.503 34.9424 214.503 35.2061C214.503 35.4209 214.464 35.5576 214.386 35.6162C214.317 35.665 214.171 35.6895 213.946 35.6895H210.445C210.377 35.6895 210.343 35.7188 210.343 35.7773C210.343 36.1387 210.406 36.4805 210.533 36.8027C210.66 37.1348 210.875 37.4229 211.178 37.667C211.49 37.9111 211.861 38.0332 212.291 38.0332C212.545 38.0332 212.755 38.0137 212.921 37.9746C213.087 37.9355 213.248 37.8916 213.404 37.8428C213.482 37.8135 213.58 37.7646 213.697 37.6963C213.814 37.6182 213.922 37.5498 214.02 37.4912C214.117 37.4229 214.166 37.3887 214.166 37.3887C214.186 37.3984 214.21 37.4277 214.239 37.4766C214.269 37.5254 214.283 37.5742 214.283 37.623C214.283 37.7305 214.254 37.8232 214.195 37.9014C214.098 38.0771 213.932 38.2578 213.697 38.4434C213.473 38.6191 213.204 38.7705 212.892 38.8975C212.579 39.0244 212.242 39.0879 211.881 39.0879ZM210.445 34.9863H212.818C212.906 34.9863 212.95 34.9131 212.95 34.7666C212.95 34.5322 212.896 34.2979 212.789 34.0635C212.691 33.8193 212.545 33.6143 212.35 33.4482C212.164 33.2822 211.944 33.1992 211.69 33.1992C211.388 33.1992 211.134 33.3018 210.929 33.5068C210.733 33.7119 210.587 33.9463 210.489 34.21C210.401 34.4736 210.357 34.6982 210.357 34.8838C210.357 34.9521 210.387 34.9863 210.445 34.9863ZM219.738 39.1611C219.65 39.1611 219.592 39.1318 219.562 39.0732C219.299 38.4775 219.074 37.9795 218.889 37.5791C218.713 37.1689 218.557 36.8125 218.42 36.5098C218.293 36.207 218.166 35.9189 218.039 35.6455C217.922 35.3623 217.785 35.0547 217.629 34.7227C217.473 34.3809 217.282 33.9609 217.058 33.4629C216.94 33.1895 216.623 33.0527 216.105 33.0527C216.066 33.0527 216.047 32.9746 216.047 32.8184C216.047 32.7012 216.066 32.623 216.105 32.584C216.379 32.584 216.667 32.5986 216.97 32.6279C217.282 32.6572 217.59 32.6719 217.893 32.6719C218.186 32.6719 218.483 32.6572 218.786 32.6279C219.089 32.5986 219.377 32.584 219.65 32.584C219.68 32.623 219.689 32.7109 219.68 32.8477C219.68 32.9844 219.66 33.0527 219.621 33.0527C219.543 33.0527 219.436 33.0674 219.299 33.0967C219.162 33.126 219.04 33.165 218.933 33.2139C218.825 33.2529 218.771 33.3066 218.771 33.375C218.771 33.4336 218.781 33.4824 218.801 33.5215L220.251 36.8906L221.569 33.9902C221.677 33.7559 221.701 33.5752 221.643 33.4482C221.496 33.1846 221.154 33.0527 220.617 33.0527C220.588 33.0527 220.573 32.9844 220.573 32.8477C220.573 32.7109 220.588 32.623 220.617 32.584C220.9 32.5938 221.184 32.6133 221.467 32.6426C221.75 32.6621 221.984 32.6719 222.17 32.6719C222.346 32.6719 222.575 32.6621 222.858 32.6426C223.151 32.6133 223.444 32.5938 223.737 32.584C223.767 32.623 223.781 32.7012 223.781 32.8184C223.781 32.9746 223.752 33.0527 223.693 33.0527C223.557 33.0527 223.366 33.1016 223.122 33.1992C222.878 33.2871 222.712 33.4238 222.624 33.6094L220.178 38.7803C220.139 38.8584 220.075 38.9414 219.987 39.0293C219.899 39.1172 219.816 39.1611 219.738 39.1611ZM228.592 39.0879C228.025 39.0879 227.503 38.9463 227.024 38.6631C226.556 38.3701 226.18 37.9795 225.896 37.4912C225.613 36.9932 225.472 36.4463 225.472 35.8506C225.472 35.1865 225.604 34.6055 225.867 34.1074C226.131 33.6094 226.487 33.2236 226.937 32.9502C227.396 32.667 227.918 32.5254 228.504 32.5254C228.982 32.5254 229.393 32.6133 229.734 32.7891C230.076 32.9648 230.354 33.1943 230.569 33.4775C230.794 33.751 230.955 34.0439 231.053 34.3564C231.16 34.6592 231.214 34.9424 231.214 35.2061C231.214 35.4209 231.175 35.5576 231.097 35.6162C231.028 35.665 230.882 35.6895 230.657 35.6895H227.156C227.088 35.6895 227.054 35.7188 227.054 35.7773C227.054 36.1387 227.117 36.4805 227.244 36.8027C227.371 37.1348 227.586 37.4229 227.889 37.667C228.201 37.9111 228.572 38.0332 229.002 38.0332C229.256 38.0332 229.466 38.0137 229.632 37.9746C229.798 37.9355 229.959 37.8916 230.115 37.8428C230.193 37.8135 230.291 37.7646 230.408 37.6963C230.525 37.6182 230.633 37.5498 230.73 37.4912C230.828 37.4229 230.877 37.3887 230.877 37.3887C230.896 37.3984 230.921 37.4277 230.95 37.4766C230.979 37.5254 230.994 37.5742 230.994 37.623C230.994 37.7305 230.965 37.8232 230.906 37.9014C230.809 38.0771 230.643 38.2578 230.408 38.4434C230.184 38.6191 229.915 38.7705 229.603 38.8975C229.29 39.0244 228.953 39.0879 228.592 39.0879ZM227.156 34.9863H229.529C229.617 34.9863 229.661 34.9131 229.661 34.7666C229.661 34.5322 229.607 34.2979 229.5 34.0635C229.402 33.8193 229.256 33.6143 229.061 33.4482C228.875 33.2822 228.655 33.1992 228.401 33.1992C228.099 33.1992 227.845 33.3018 227.64 33.5068C227.444 33.7119 227.298 33.9463 227.2 34.21C227.112 34.4736 227.068 34.6982 227.068 34.8838C227.068 34.9521 227.098 34.9863 227.156 34.9863ZM233.461 39.0586C233.422 39.0195 233.402 38.9268 233.402 38.7803C233.402 38.6338 233.422 38.5605 233.461 38.5605C233.539 38.5605 233.646 38.5459 233.783 38.5166C233.93 38.4775 234.062 38.4336 234.179 38.3848C234.306 38.3262 234.374 38.2773 234.384 38.2383C234.452 37.9648 234.486 37.6084 234.486 37.1689V34.7812C234.486 34.3418 234.408 34.0293 234.252 33.8438C234.164 33.7363 234.052 33.668 233.915 33.6387C233.788 33.5996 233.676 33.5752 233.578 33.5654C233.48 33.5459 233.432 33.5215 233.432 33.4922C233.432 33.2188 233.456 33.0723 233.505 33.0527C233.729 33.0332 234.057 32.9844 234.486 32.9062C234.926 32.8281 235.336 32.7402 235.717 32.6426C235.736 32.6328 235.78 32.623 235.849 32.6133C235.927 32.5938 235.971 32.584 235.98 32.584C236.02 32.584 236.054 32.6182 236.083 32.6865C236.112 32.7549 236.127 32.8086 236.127 32.8477C236.107 32.9844 236.093 33.0967 236.083 33.1846C236.073 33.2725 236.068 33.3359 236.068 33.375C236.068 33.4238 236.078 33.4482 236.098 33.4482C236.107 33.4482 236.127 33.4336 236.156 33.4043C236.391 33.1699 236.688 32.9648 237.05 32.7891C237.421 32.6133 237.797 32.5254 238.178 32.5254C239.438 32.5254 240.067 33.5264 240.067 35.5283V36.9199C240.067 37.5352 240.102 37.9746 240.17 38.2383C240.189 38.2773 240.258 38.3262 240.375 38.3848C240.502 38.4336 240.634 38.4775 240.771 38.5166C240.917 38.5459 241.02 38.5605 241.078 38.5605C241.107 38.5605 241.122 38.6338 241.122 38.7803C241.132 38.917 241.127 39.0098 241.107 39.0586C241.068 39.0488 240.932 39.0342 240.697 39.0146C240.473 39.0049 240.224 38.9951 239.95 38.9854C239.687 38.9658 239.477 38.9561 239.32 38.9561C239.164 38.9561 238.959 38.9658 238.705 38.9854C238.461 38.9951 238.227 39.0049 238.002 39.0146C237.787 39.0342 237.65 39.0488 237.592 39.0586C237.553 39.0195 237.533 38.9268 237.533 38.7803C237.533 38.6338 237.553 38.5605 237.592 38.5605C237.67 38.5605 237.772 38.5459 237.899 38.5166C238.026 38.4775 238.144 38.4336 238.251 38.3848C238.368 38.3262 238.432 38.2773 238.441 38.2383C238.48 38.0918 238.51 37.9307 238.529 37.7549C238.549 37.5791 238.559 37.3838 238.559 37.1689V35.7773C238.559 34.9668 238.446 34.4004 238.222 34.0781C238.007 33.7559 237.66 33.5947 237.182 33.5947C236.869 33.5947 236.596 33.6826 236.361 33.8584C236.127 34.0244 236.01 34.2051 236.01 34.4004V36.9199C236.01 37.5352 236.044 37.9746 236.112 38.2383C236.132 38.2773 236.2 38.3262 236.317 38.3848C236.435 38.4336 236.562 38.4775 236.698 38.5166C236.835 38.5459 236.928 38.5605 236.977 38.5605C237.016 38.5605 237.035 38.6338 237.035 38.7803C237.045 38.917 237.04 39.0098 237.021 39.0586C236.972 39.0488 236.83 39.0342 236.596 39.0146C236.371 39.0049 236.132 38.9951 235.878 38.9854C235.624 38.9658 235.419 38.9561 235.263 38.9561C235.106 38.9561 234.896 38.9658 234.633 38.9854C234.369 38.9951 234.12 39.0049 233.886 39.0146C233.661 39.0342 233.52 39.0488 233.461 39.0586ZM246.123 39.1025C245.615 39.1025 245.181 38.9414 244.819 38.6191C244.468 38.2871 244.292 37.7793 244.292 37.0957V33.5508H243.398C243.33 33.5508 243.296 33.4238 243.296 33.1699C243.296 33.0918 243.301 33.0479 243.311 33.0381C243.506 32.9502 243.696 32.8428 243.882 32.7158C244.067 32.5791 244.253 32.4277 244.438 32.2617C244.722 31.9785 244.951 31.7344 245.127 31.5293C245.303 31.3145 245.391 31.207 245.391 31.207C245.439 31.207 245.488 31.2119 245.537 31.2217C245.586 31.2217 245.63 31.2266 245.669 31.2363C245.757 31.2656 245.801 31.2949 245.801 31.3242V32.7598H246.87C247.095 32.7598 247.266 32.7646 247.383 32.7744C247.51 32.7744 247.578 32.7744 247.588 32.7744C247.666 32.7744 247.705 32.8184 247.705 32.9062C247.705 33.1504 247.656 33.3652 247.559 33.5508H245.801V37.0811C245.801 37.4717 245.884 37.7695 246.05 37.9746C246.216 38.1797 246.445 38.2822 246.738 38.2822C246.943 38.2822 247.134 38.2432 247.31 38.165C247.485 38.0771 247.583 38.0332 247.603 38.0332C247.642 38.0234 247.686 38.0674 247.734 38.165C247.783 38.2627 247.803 38.3262 247.793 38.3555C247.754 38.4434 247.642 38.5459 247.456 38.6631C247.28 38.7803 247.07 38.8828 246.826 38.9707C246.592 39.0586 246.357 39.1025 246.123 39.1025ZM250.069 39.0439C250.03 39.0049 250.011 38.9121 250.011 38.7656C250.011 38.6289 250.03 38.5605 250.069 38.5605C250.147 38.5605 250.25 38.541 250.377 38.502C250.504 38.4629 250.621 38.4141 250.729 38.3555C250.846 38.2969 250.909 38.248 250.919 38.209C250.958 38.043 250.987 37.8672 251.007 37.6816C251.026 37.4961 251.036 37.3105 251.036 37.125V34.7666C251.036 34.3076 250.958 33.9951 250.802 33.8291C250.714 33.7217 250.602 33.6484 250.465 33.6094C250.338 33.5703 250.221 33.5459 250.113 33.5361C250.016 33.5264 249.967 33.5117 249.967 33.4922C249.967 33.1992 249.991 33.0527 250.04 33.0527C250.353 33.0137 250.694 32.96 251.065 32.8916C251.446 32.8135 251.788 32.7402 252.091 32.6719L252.56 32.5547C252.628 32.5547 252.662 32.6523 252.662 32.8477C252.662 32.9746 252.643 33.1602 252.604 33.4043C252.574 33.6387 252.56 33.873 252.56 34.1074V36.8906C252.56 37.5059 252.594 37.9453 252.662 38.209C252.682 38.248 252.745 38.2969 252.853 38.3555C252.96 38.4141 253.077 38.4629 253.204 38.502C253.331 38.541 253.419 38.5605 253.468 38.5605C253.497 38.5605 253.512 38.6289 253.512 38.7656C253.521 38.9023 253.517 38.9951 253.497 39.0439C253.194 39.0244 252.887 39.0049 252.574 38.9854C252.262 38.9658 252.003 38.9561 251.798 38.9561C251.495 38.9561 251.183 38.9658 250.86 38.9854C250.548 39.0049 250.284 39.0244 250.069 39.0439ZM251.681 31.0312C251.437 31.0312 251.227 30.9434 251.051 30.7676C250.875 30.5918 250.787 30.3818 250.787 30.1377C250.787 29.8936 250.875 29.6885 251.051 29.5225C251.227 29.3467 251.437 29.2588 251.681 29.2588C251.925 29.2588 252.13 29.3467 252.296 29.5225C252.472 29.6885 252.56 29.8936 252.56 30.1377C252.56 30.3818 252.472 30.5918 252.296 30.7676C252.13 30.9434 251.925 31.0312 251.681 31.0312ZM259.216 39.1611C259.128 39.1611 259.069 39.1318 259.04 39.0732C258.776 38.4775 258.552 37.9795 258.366 37.5791C258.19 37.1689 258.034 36.8125 257.897 36.5098C257.771 36.207 257.644 35.9189 257.517 35.6455C257.399 35.3623 257.263 35.0547 257.106 34.7227C256.95 34.3809 256.76 33.9609 256.535 33.4629C256.418 33.1895 256.101 33.0527 255.583 33.0527C255.544 33.0527 255.524 32.9746 255.524 32.8184C255.524 32.7012 255.544 32.623 255.583 32.584C255.856 32.584 256.145 32.5986 256.447 32.6279C256.76 32.6572 257.067 32.6719 257.37 32.6719C257.663 32.6719 257.961 32.6572 258.264 32.6279C258.566 32.5986 258.854 32.584 259.128 32.584C259.157 32.623 259.167 32.7109 259.157 32.8477C259.157 32.9844 259.138 33.0527 259.099 33.0527C259.021 33.0527 258.913 33.0674 258.776 33.0967C258.64 33.126 258.518 33.165 258.41 33.2139C258.303 33.2529 258.249 33.3066 258.249 33.375C258.249 33.4336 258.259 33.4824 258.278 33.5215L259.729 36.8906L261.047 33.9902C261.154 33.7559 261.179 33.5752 261.12 33.4482C260.974 33.1846 260.632 33.0527 260.095 33.0527C260.065 33.0527 260.051 32.9844 260.051 32.8477C260.051 32.7109 260.065 32.623 260.095 32.584C260.378 32.5938 260.661 32.6133 260.944 32.6426C261.228 32.6621 261.462 32.6719 261.647 32.6719C261.823 32.6719 262.053 32.6621 262.336 32.6426C262.629 32.6133 262.922 32.5938 263.215 32.584C263.244 32.623 263.259 32.7012 263.259 32.8184C263.259 32.9746 263.229 33.0527 263.171 33.0527C263.034 33.0527 262.844 33.1016 262.6 33.1992C262.355 33.2871 262.189 33.4238 262.102 33.6094L259.655 38.7803C259.616 38.8584 259.553 38.9414 259.465 39.0293C259.377 39.1172 259.294 39.1611 259.216 39.1611ZM266.648 39.1025C266.16 39.1025 265.76 38.9707 265.447 38.707C265.145 38.4336 264.993 38.0625 264.993 37.5938C264.993 37.2715 265.096 36.9785 265.301 36.7148C265.516 36.4512 265.813 36.2266 266.194 36.041C266.331 35.9727 266.453 35.9189 266.561 35.8799C266.678 35.8311 266.785 35.7871 266.883 35.748C267.225 35.6406 267.508 35.5527 267.732 35.4844C267.967 35.416 268.133 35.3672 268.23 35.3379C268.318 35.2891 268.362 35.2109 268.362 35.1035V34.2979C268.362 33.9561 268.284 33.6875 268.128 33.4922C267.972 33.2969 267.762 33.1992 267.498 33.1992C267.205 33.1992 266.976 33.292 266.81 33.4775C266.644 33.6533 266.561 33.9072 266.561 34.2393C266.561 34.4346 266.487 34.5811 266.341 34.6787C266.194 34.7666 266.028 34.8105 265.843 34.8105C265.481 34.8105 265.228 34.6934 265.081 34.459C265.081 34.2246 265.169 33.9951 265.345 33.7705C265.521 33.5361 265.75 33.3262 266.033 33.1406C266.326 32.9551 266.648 32.8086 267 32.7012C267.352 32.584 267.703 32.5254 268.055 32.5254C268.66 32.5254 269.114 32.6865 269.417 33.0088C269.72 33.3213 269.871 33.8633 269.871 34.6348V37.5205C269.871 37.9209 270.032 38.1211 270.354 38.1211C270.501 38.1211 270.667 38.0576 270.853 37.9307C270.911 37.9404 270.94 37.9941 270.94 38.0918C270.94 38.2773 270.911 38.4238 270.853 38.5312C270.706 38.6484 270.511 38.7705 270.267 38.8975C270.022 39.0244 269.788 39.0879 269.563 39.0879C269.339 39.0879 269.119 39.0049 268.904 38.8389C268.689 38.6729 268.548 38.4922 268.479 38.2969C268.401 38.3652 268.343 38.4141 268.304 38.4434C268.265 38.4727 268.201 38.5215 268.113 38.5898C267.908 38.7266 267.684 38.8486 267.439 38.9561C267.195 39.0537 266.932 39.1025 266.648 39.1025ZM267.396 38.1504C267.659 38.1504 267.884 38.082 268.069 37.9453C268.265 37.8086 268.362 37.6523 268.362 37.4766V35.9824L267.425 36.3047C267.2 36.4023 267 36.5195 266.824 36.6562C266.648 36.793 266.561 36.9883 266.561 37.2422C266.561 37.5547 266.639 37.7842 266.795 37.9307C266.951 38.0771 267.151 38.1504 267.396 38.1504Z" fill="black"/>
<path d="M1.03125 23.0703C0.984375 23.0234 0.960938 22.8828 0.960938 22.6484C0.960938 22.4453 0.984375 22.3438 1.03125 22.3438C1.1875 22.3438 1.375 22.3203 1.59375 22.2734C1.82812 22.2266 2.04688 22.1719 2.25 22.1094C2.46875 22.0312 2.60156 21.9453 2.64844 21.8516C2.75781 21.6797 2.8125 20.9453 2.8125 19.6484V10.7891C2.8125 10.3359 2.79688 9.9375 2.76562 9.59375C2.75 9.25 2.71094 8.97656 2.64844 8.77344C2.61719 8.67969 2.49219 8.59375 2.27344 8.51562C2.07031 8.4375 1.84375 8.375 1.59375 8.32812C1.35938 8.28125 1.17188 8.25781 1.03125 8.25781C0.96875 8.25781 0.9375 8.16406 0.9375 7.97656C0.9375 7.77344 0.96875 7.64062 1.03125 7.57812L3.84375 7.625C4.07812 7.625 4.33594 7.625 4.61719 7.625C4.89844 7.60938 5.19531 7.59375 5.50781 7.57812C5.82031 7.5625 6.11719 7.55469 6.39844 7.55469C6.67969 7.53906 6.92969 7.53125 7.14844 7.53125C7.66406 7.53125 8.1875 7.60938 8.71875 7.76562C9.25 7.92187 9.75781 8.15625 10.2422 8.46875C10.7422 8.78125 11.1406 9.22656 11.4375 9.80469C11.75 10.3828 11.9062 11.0547 11.9062 11.8203C11.9062 12.3047 11.8047 12.8203 11.6016 13.3672C11.3984 13.9141 11.0938 14.4297 10.6875 14.9141C10.2969 15.3828 9.79688 15.7656 9.1875 16.0625C8.59375 16.3594 7.90625 16.5078 7.125 16.5078C6.25 16.5078 5.64844 16.2891 5.32031 15.8516C5.22656 15.7422 5.20312 15.5625 5.25 15.3125C5.28125 15.2344 5.30469 15.2109 5.32031 15.2422C5.80469 15.4141 6.32812 15.5 6.89062 15.5C7.42188 15.5 7.89844 15.3516 8.32031 15.0547C8.75781 14.7422 9.10156 14.3359 9.35156 13.8359C9.61719 13.3203 9.75 12.7656 9.75 12.1719C9.75 11.0625 9.50781 10.1875 9.02344 9.54688C8.53906 8.89062 7.78906 8.5625 6.77344 8.5625C6.05469 8.5625 5.50781 8.61719 5.13281 8.72656C4.99219 8.74219 4.90625 8.98438 4.875 9.45312C4.85938 9.92188 4.85156 10.5391 4.85156 11.3047V19.6719C4.85156 20.7031 4.91406 21.3828 5.03906 21.7109C5.10156 21.8359 5.25 21.9531 5.48438 22.0625C5.73438 22.1719 6 22.2578 6.28125 22.3203C6.5625 22.3672 6.76562 22.3906 6.89062 22.3906C6.95312 22.3906 6.98438 22.5 6.98438 22.7188C6.98438 22.8281 6.96875 22.9453 6.9375 23.0703C6.15625 23.0391 5.50781 23.0156 4.99219 23C4.49219 22.9688 4.125 22.9531 3.89062 22.9531L1.03125 23.0703ZM12.8841 23.0703C12.8216 23.0078 12.7903 22.8906 12.7903 22.7188C12.7903 22.5 12.8216 22.3906 12.8841 22.3906C13.0716 22.3906 13.3138 22.3516 13.6106 22.2734C13.9075 22.1953 14.1106 22.0859 14.22 21.9453C14.3919 21.7266 14.5638 21.4375 14.7356 21.0781C14.9231 20.7188 15.1184 20.2734 15.3216 19.7422L19.3997 9.26562C19.4934 9.03125 19.5481 8.86719 19.5638 8.77344C19.595 8.67969 19.6184 8.60156 19.6341 8.53906C19.6653 8.46094 19.72 8.33594 19.7981 8.16406C19.9075 7.94531 20.0169 7.77344 20.1263 7.64844C20.2356 7.52344 20.4153 7.46094 20.6653 7.46094L20.8763 7.53125L25.5638 19.9062C25.7044 20.2656 25.8294 20.5859 25.9388 20.8672C26.0638 21.1484 26.1653 21.3906 26.2434 21.5938C26.3059 21.75 26.4388 21.8906 26.6419 22.0156C26.8606 22.125 27.0794 22.2188 27.2981 22.2969C27.5325 22.3594 27.7122 22.3906 27.8372 22.3906C27.8997 22.3906 27.9309 22.5391 27.9309 22.8359C27.9309 22.8672 27.9231 22.9062 27.9075 22.9531C27.9075 22.9844 27.8997 23.0234 27.8841 23.0703C27.1028 23.0391 26.4934 23.0156 26.0559 23C25.6341 22.9688 25.3841 22.9531 25.3059 22.9531L22.5872 23.0703C22.5247 23.0078 22.4934 22.8828 22.4934 22.6953C22.5091 22.4922 22.5481 22.3906 22.6106 22.3906C22.7981 22.3906 23.0325 22.3516 23.3138 22.2734C23.595 22.1953 23.7591 22.0938 23.8059 21.9688C23.8216 21.9062 23.8294 21.8438 23.8294 21.7812C23.845 21.7188 23.8528 21.6562 23.8528 21.5938C23.8528 21.3906 23.8294 21.1562 23.7825 20.8906C23.7356 20.6094 23.6809 20.3906 23.6184 20.2344L22.5638 17.3281C22.5169 17.2656 22.47 17.2344 22.4231 17.2344C21.8138 17.1875 21.22 17.1641 20.6419 17.1641C20.2356 17.1641 19.7825 17.1797 19.2825 17.2109C18.7981 17.2266 18.2591 17.25 17.6653 17.2812L17.5481 17.3516L16.5403 19.9297C16.3841 20.3203 16.2747 20.6484 16.2122 20.9141C16.1653 21.1797 16.1419 21.3906 16.1419 21.5469C16.1419 21.7656 16.2044 21.9219 16.3294 22.0156C16.47 22.125 16.6966 22.2188 17.0091 22.2969C17.3216 22.3594 17.5481 22.3906 17.6888 22.3906C17.7356 22.3906 17.7591 22.4844 17.7591 22.6719C17.7747 22.8594 17.7669 22.9922 17.7356 23.0703L15.3216 22.9531C14.8841 22.9219 14.4544 22.9297 14.0325 22.9766C13.6263 23.0078 13.2434 23.0391 12.8841 23.0703ZM19.8216 16.0391C20.5247 16.0391 21.2356 16.0156 21.9544 15.9688L22.0247 15.8516L20.1263 10.6719L18.1106 15.8984C18.1106 15.9609 18.1263 15.9922 18.1575 15.9922C18.5638 16.0078 18.8997 16.0234 19.1653 16.0391C19.4466 16.0391 19.6653 16.0391 19.8216 16.0391ZM34.8384 23.2344C34.4634 23.2344 34.065 23.2031 33.6431 23.1406C33.2213 23.0938 32.8697 23.0391 32.5884 22.9766C32.0103 22.8672 31.5884 22.7812 31.3228 22.7188C31.0728 22.6406 30.8384 22.5859 30.6197 22.5547C30.4166 21.5859 30.2681 20.7969 30.1744 20.1875C30.0806 19.5625 30.0338 19.1094 30.0338 18.8281C30.0338 18.7344 30.1588 18.6875 30.4088 18.6875C30.69 18.6875 30.8853 18.7578 30.9947 18.8984C31.5416 21.1484 32.8384 22.2734 34.8853 22.2734C35.6666 22.2734 36.3306 22.0391 36.8775 21.5703C37.4244 21.1016 37.6978 20.4375 37.6978 19.5781C37.6978 19.2969 37.6353 18.9531 37.5103 18.5469C37.4009 18.1406 37.1431 17.7891 36.7369 17.4922C36.4244 17.2578 36.1666 17.0859 35.9634 16.9766C35.7603 16.8516 35.5572 16.7422 35.3541 16.6484C35.1509 16.5391 34.8931 16.3906 34.5806 16.2031L33.6431 15.6406C33.1588 15.3438 32.6744 15.0078 32.19 14.6328C31.7056 14.2422 31.2994 13.7891 30.9713 13.2734C30.6588 12.7578 30.5025 12.1719 30.5025 11.5156C30.5025 10.6875 30.7134 9.96875 31.1353 9.35938C31.5728 8.73438 32.1353 8.25 32.8228 7.90625C33.5259 7.5625 34.2838 7.39062 35.0963 7.39062C35.44 7.39062 35.7603 7.41406 36.0572 7.46094C36.3697 7.49219 36.6275 7.53125 36.8306 7.57812C37.2994 7.6875 37.6275 7.77344 37.815 7.83594C38.0181 7.89844 38.2916 7.96875 38.6353 8.04688C38.8228 8.85938 38.9166 9.97656 38.9166 11.3984C38.9166 11.5078 38.8384 11.5625 38.6822 11.5625C38.2916 11.5625 38.0884 11.4844 38.0728 11.3281C37.9947 10.8594 37.8228 10.3984 37.5572 9.94531C37.2916 9.49219 36.9322 9.11719 36.4791 8.82031C36.0259 8.50781 35.4869 8.35156 34.8619 8.35156C34.2213 8.35156 33.7213 8.47656 33.3619 8.72656C33.0025 8.96094 32.7447 9.26562 32.5884 9.64062C32.4478 10 32.3775 10.3828 32.3775 10.7891C32.3775 11.1797 32.4713 11.5703 32.6588 11.9609C32.8463 12.3516 33.1197 12.6797 33.4791 12.9453C33.9634 13.3047 34.4478 13.6406 34.9322 13.9531C35.4322 14.2656 35.9478 14.5859 36.4791 14.9141C36.9791 15.2266 37.4791 15.5781 37.9791 15.9688C38.4791 16.3438 38.8931 16.7734 39.2213 17.2578C39.565 17.7422 39.7369 18.3047 39.7369 18.9453C39.7369 19.7734 39.5103 20.5156 39.0572 21.1719C38.6041 21.8125 38.0025 22.3203 37.2525 22.6953C36.5181 23.0547 35.7134 23.2344 34.8384 23.2344ZM55.4569 26.1875C54.7225 26.1875 53.91 25.9844 53.0194 25.5781C52.0662 25.1406 51.1444 24.6641 50.2537 24.1484C49.3787 23.6328 48.5584 23.25 47.7928 23C47.2303 22.8281 46.6522 22.5391 46.0584 22.1328C45.4647 21.7266 44.8787 21.2109 44.3006 20.5859C43.7225 19.9609 43.2459 19.1875 42.8709 18.2656C42.5116 17.3281 42.3319 16.3438 42.3319 15.3125C42.3319 14.2188 42.5272 13.1953 42.9178 12.2422C43.3084 11.2734 43.8397 10.4297 44.5116 9.71094C45.1991 8.97656 45.9959 8.40625 46.9022 8C47.8084 7.57812 48.7772 7.36719 49.8084 7.36719C50.8397 7.36719 51.8084 7.57812 52.7147 8C53.6209 8.40625 54.4178 8.97656 55.1053 9.71094C55.7928 10.4297 56.3319 11.2734 56.7225 12.2422C57.1131 13.1953 57.3084 14.2188 57.3084 15.3125C57.3084 16.3125 57.1522 17.25 56.8397 18.125C56.5272 18.9844 56.1131 19.75 55.5975 20.4219C55.0819 21.0938 54.5116 21.6406 53.8866 22.0625C53.2772 22.4844 52.6678 22.7578 52.0584 22.8828C52.2772 22.9922 52.5272 23.125 52.8084 23.2812C53.1053 23.4375 53.4412 23.625 53.8162 23.8438C54.3162 24.125 54.7459 24.3438 55.1053 24.5C55.4803 24.6719 55.8553 24.7891 56.2303 24.8516C56.6053 24.9297 57.035 24.9688 57.5194 24.9688C57.9725 24.9688 58.3319 24.9375 58.5975 24.875C58.8787 24.8125 59.0506 24.7812 59.1131 24.7812C59.3006 24.7812 59.3944 24.9375 59.3944 25.25V25.3672C58.3475 25.9141 57.035 26.1875 55.4569 26.1875ZM50.1834 22.2266C51.1834 22.2266 52.0506 21.9219 52.785 21.3125C53.5194 20.7031 54.0819 19.9062 54.4725 18.9219C54.8787 17.9375 55.0819 16.8828 55.0819 15.7578C55.0819 14.7734 54.9491 13.8438 54.6834 12.9688C54.4334 12.0781 54.0584 11.2891 53.5584 10.6016C53.0741 9.89844 52.4803 9.35156 51.7772 8.96094C51.0897 8.55469 50.3162 8.35156 49.4569 8.35156C48.4725 8.35156 47.6131 8.65625 46.8787 9.26562C46.1444 9.85938 45.5741 10.6484 45.1678 11.6328C44.7616 12.6172 44.5584 13.6719 44.5584 14.7969C44.5584 15.7812 44.6834 16.7188 44.9334 17.6094C45.1991 18.5 45.5741 19.2969 46.0584 20C46.5584 20.6875 47.1522 21.2344 47.8397 21.6406C48.5428 22.0312 49.3241 22.2266 50.1834 22.2266ZM67.38 23C65.5206 23 64.0909 22.4531 63.0909 21.3594C62.0909 20.2656 61.5909 18.5 61.5909 16.0625V10.7422C61.5909 10.2578 61.5753 9.84375 61.5441 9.5C61.5284 9.14062 61.4894 8.85938 61.4269 8.65625C61.3956 8.5625 61.2784 8.48438 61.0753 8.42188C60.8722 8.34375 60.6534 8.28125 60.4191 8.23438C60.1847 8.1875 59.9972 8.16406 59.8566 8.16406C59.7941 8.16406 59.7628 8.0625 59.7628 7.85938C59.7628 7.67188 59.7941 7.54687 59.8566 7.48438L62.6691 7.60156C62.7941 7.60156 63.0831 7.59375 63.5363 7.57812C63.9894 7.54687 64.6066 7.51563 65.3878 7.48438C65.4191 7.60938 65.4347 7.71875 65.4347 7.8125C65.4347 8.04688 65.4034 8.16406 65.3409 8.16406C65.2472 8.16406 65.0831 8.19531 64.8488 8.25781C64.6144 8.30469 64.3956 8.36719 64.1925 8.44531C63.9894 8.50781 63.8722 8.57812 63.8409 8.65625C63.7003 9.1875 63.63 9.91406 63.63 10.8359V16.0625C63.63 17.8281 64.005 19.2344 64.755 20.2812C65.505 21.3281 66.5675 21.8516 67.9425 21.8516C70.6144 21.8516 71.9503 20.0938 71.9503 16.5781V10.7188C71.9503 9.73438 71.8956 9.04688 71.7863 8.65625C71.755 8.5625 71.6144 8.47656 71.3644 8.39844C71.1144 8.32031 70.8488 8.25781 70.5675 8.21094C70.2863 8.14844 70.0753 8.11719 69.9347 8.11719C69.8722 8.11719 69.8409 8.02344 69.8409 7.83594C69.8409 7.66406 69.8722 7.54687 69.9347 7.48438C70.0753 7.48438 70.3097 7.5 70.6378 7.53125C70.9659 7.54687 71.3175 7.57031 71.6925 7.60156C72.0831 7.61719 72.4191 7.625 72.7003 7.625C73.1066 7.625 73.6222 7.60156 74.2472 7.55469C74.8566 7.50781 75.2159 7.48438 75.3253 7.48438C75.3566 7.60938 75.3722 7.72656 75.3722 7.83594C75.3722 8.02344 75.3409 8.11719 75.2784 8.11719C75.1847 8.11719 74.9894 8.14844 74.6925 8.21094C74.3956 8.27344 74.1144 8.34375 73.8488 8.42188C73.5988 8.5 73.4581 8.57812 73.4269 8.65625C73.3644 8.90625 73.3175 9.21094 73.2863 9.57031C73.255 9.92969 73.2394 10.3516 73.2394 10.8359V16.5312C73.2394 18.1406 73.0128 19.4219 72.5597 20.375C72.1066 21.3125 71.4425 21.9844 70.5675 22.3906C69.6925 22.7969 68.63 23 67.38 23ZM77.5453 23.0703C77.4828 23.0078 77.4516 22.8906 77.4516 22.7188C77.4516 22.5 77.4828 22.3906 77.5453 22.3906C77.6859 22.3906 77.8734 22.375 78.1078 22.3438C78.3422 22.2969 78.5609 22.2344 78.7641 22.1562C78.9672 22.0781 79.0844 22 79.1156 21.9219C79.1781 21.7031 79.2172 21.4219 79.2328 21.0781C79.2641 20.7344 79.2797 20.3203 79.2797 19.8359V10.7422C79.2797 10.2578 79.2641 9.84375 79.2328 9.5C79.2172 9.14062 79.1781 8.85938 79.1156 8.65625C79.0844 8.5625 78.9672 8.48438 78.7641 8.42188C78.5609 8.34375 78.3422 8.28125 78.1078 8.23438C77.8734 8.1875 77.6859 8.16406 77.5453 8.16406C77.4828 8.16406 77.4516 8.0625 77.4516 7.85938C77.4516 7.67188 77.4828 7.54687 77.5453 7.48438L80.3578 7.60156C80.4828 7.60156 80.7719 7.59375 81.225 7.57812C81.6781 7.54687 82.2953 7.51563 83.0766 7.48438C83.1078 7.60938 83.1234 7.72656 83.1234 7.83594C83.1234 8.05469 83.0922 8.16406 83.0297 8.16406C82.9359 8.16406 82.7719 8.19531 82.5375 8.25781C82.3031 8.30469 82.0844 8.36719 81.8812 8.44531C81.6781 8.50781 81.5609 8.57812 81.5297 8.65625C81.3891 9.1875 81.3187 9.91406 81.3187 10.8359V19.7422C81.3187 20.6484 81.3891 21.375 81.5297 21.9219C81.5609 21.9844 81.6781 22.0547 81.8812 22.1328C82.0844 22.2109 82.3031 22.2734 82.5375 22.3203C82.7719 22.3672 82.9359 22.3906 83.0297 22.3906C83.0922 22.3906 83.1234 22.5078 83.1234 22.7422C83.1234 22.8359 83.1078 22.9453 83.0766 23.0703C82.2953 23.0391 81.6781 23.0156 81.225 23C80.7719 22.9688 80.4828 22.9531 80.3578 22.9531L77.5453 23.0703ZM98.5622 23.1172C98.3122 23.1172 98.0544 22.9375 97.7887 22.5781L88.695 9.6875V19.6953C88.695 20.7578 88.7497 21.4844 88.8591 21.875C88.8903 21.9375 89.0231 22.0156 89.2575 22.1094C89.5075 22.1875 89.7731 22.2578 90.0544 22.3203C90.3356 22.3672 90.5231 22.3906 90.6169 22.3906C90.6637 22.3906 90.6872 22.4844 90.6872 22.6719C90.7028 22.8594 90.695 22.9922 90.6637 23.0703C89.8825 23.0391 89.2653 23.0156 88.8122 23C88.3747 22.9688 88.0934 22.9531 87.9684 22.9531L85.2731 23.0703C85.2262 23.0234 85.2028 22.9062 85.2028 22.7188C85.2028 22.5 85.2262 22.3906 85.2731 22.3906C85.4294 22.3906 85.6481 22.3672 85.9294 22.3203C86.2106 22.2578 86.4762 22.1875 86.7262 22.1094C86.9762 22.0156 87.1169 21.9219 87.1481 21.8281C87.3044 21.4531 87.3825 20.7188 87.3825 19.625V10.4141C87.3825 9.61719 87.3278 9.03125 87.2184 8.65625C87.1872 8.5625 87.0466 8.48438 86.7966 8.42188C86.5622 8.34375 86.3044 8.28125 86.0231 8.23438C85.7419 8.1875 85.5231 8.16406 85.3669 8.16406C85.3044 8.16406 85.2731 8.0625 85.2731 7.85938C85.2731 7.67188 85.3044 7.54687 85.3669 7.48438C85.9762 7.5 86.4762 7.51563 86.8669 7.53125C87.2731 7.53125 87.57 7.53125 87.7575 7.53125C88.1637 7.53125 88.5231 7.53125 88.8356 7.53125C89.1481 7.51563 89.4137 7.5 89.6325 7.48438C89.9294 8.01562 90.7341 9.24219 92.0466 11.1641C93.3747 13.0703 95.2184 15.6719 97.5778 18.9688C97.6247 18.7031 97.6481 18.3828 97.6481 18.0078V10.7188C97.6481 9.73438 97.5934 9.04688 97.4841 8.65625C97.4528 8.5625 97.3122 8.47656 97.0622 8.39844C96.8122 8.32031 96.5466 8.25781 96.2653 8.21094C95.9841 8.14844 95.7731 8.11719 95.6325 8.11719C95.57 8.11719 95.5387 8.02344 95.5387 7.83594C95.5387 7.66406 95.57 7.54687 95.6325 7.48438C95.7731 7.48438 96.0075 7.5 96.3356 7.53125C96.6637 7.54687 97.0153 7.57031 97.3903 7.60156C97.7809 7.61719 98.1169 7.625 98.3981 7.625C98.8044 7.625 99.32 7.60156 99.945 7.55469C100.554 7.50781 100.914 7.48438 101.023 7.48438C101.054 7.60938 101.07 7.72656 101.07 7.83594C101.07 8.02344 101.039 8.11719 100.976 8.11719C100.882 8.11719 100.687 8.14844 100.39 8.21094C100.093 8.27344 99.8122 8.34375 99.5466 8.42188C99.2966 8.5 99.1559 8.57812 99.1247 8.65625C99.0622 8.90625 99.0153 9.21094 98.9841 9.57031C98.9528 9.92969 98.9372 10.3516 98.9372 10.8359V19.7422C98.9372 20.7109 98.9606 21.8047 99.0075 23.0234C98.945 23.0859 98.7966 23.1172 98.5622 23.1172ZM103.337 23.0703C103.274 23.0078 103.243 22.8906 103.243 22.7188C103.243 22.5 103.274 22.3906 103.337 22.3906C103.478 22.3906 103.665 22.375 103.899 22.3438C104.134 22.2969 104.353 22.2344 104.556 22.1562C104.759 22.0781 104.876 22 104.907 21.9219C104.97 21.7031 105.009 21.4219 105.024 21.0781C105.056 20.7344 105.071 20.3203 105.071 19.8359V10.7422C105.071 10.2578 105.056 9.84375 105.024 9.5C105.009 9.14062 104.97 8.85938 104.907 8.65625C104.876 8.5625 104.759 8.48438 104.556 8.42188C104.353 8.34375 104.134 8.28125 103.899 8.23438C103.665 8.1875 103.478 8.16406 103.337 8.16406C103.274 8.16406 103.243 8.0625 103.243 7.85938C103.243 7.67188 103.274 7.54687 103.337 7.48438L106.149 7.60156C106.274 7.60156 106.563 7.59375 107.017 7.57812C107.47 7.54687 108.087 7.51563 108.868 7.48438C108.899 7.60938 108.915 7.72656 108.915 7.83594C108.915 8.05469 108.884 8.16406 108.821 8.16406C108.728 8.16406 108.563 8.19531 108.329 8.25781C108.095 8.30469 107.876 8.36719 107.673 8.44531C107.47 8.50781 107.353 8.57812 107.321 8.65625C107.181 9.1875 107.11 9.91406 107.11 10.8359V19.7422C107.11 20.6484 107.181 21.375 107.321 21.9219C107.353 21.9844 107.47 22.0547 107.673 22.1328C107.876 22.2109 108.095 22.2734 108.329 22.3203C108.563 22.3672 108.728 22.3906 108.821 22.3906C108.884 22.3906 108.915 22.5078 108.915 22.7422C108.915 22.8359 108.899 22.9453 108.868 23.0703C108.087 23.0391 107.47 23.0156 107.017 23C106.563 22.9688 106.274 22.9531 106.149 22.9531L103.337 23.0703ZM117.175 23.0703C117.113 23.0078 117.082 22.8906 117.082 22.7188C117.082 22.5 117.113 22.3906 117.175 22.3906C117.363 22.3906 117.605 22.3516 117.902 22.2734C118.199 22.1953 118.402 22.0859 118.511 21.9453C118.683 21.7266 118.855 21.4375 119.027 21.0781C119.214 20.7188 119.41 20.2734 119.613 19.7422L123.691 9.26562C123.785 9.03125 123.839 8.86719 123.855 8.77344C123.886 8.67969 123.91 8.60156 123.925 8.53906C123.957 8.46094 124.011 8.33594 124.089 8.16406C124.199 7.94531 124.308 7.77344 124.418 7.64844C124.527 7.52344 124.707 7.46094 124.957 7.46094L125.168 7.53125L129.855 19.9062C129.996 20.2656 130.121 20.5859 130.23 20.8672C130.355 21.1484 130.457 21.3906 130.535 21.5938C130.597 21.75 130.73 21.8906 130.933 22.0156C131.152 22.125 131.371 22.2188 131.589 22.2969C131.824 22.3594 132.003 22.3906 132.128 22.3906C132.191 22.3906 132.222 22.5391 132.222 22.8359C132.222 22.8672 132.214 22.9062 132.199 22.9531C132.199 22.9844 132.191 23.0234 132.175 23.0703C131.394 23.0391 130.785 23.0156 130.347 23C129.925 22.9688 129.675 22.9531 129.597 22.9531L126.878 23.0703C126.816 23.0078 126.785 22.8828 126.785 22.6953C126.8 22.4922 126.839 22.3906 126.902 22.3906C127.089 22.3906 127.324 22.3516 127.605 22.2734C127.886 22.1953 128.05 22.0938 128.097 21.9688C128.113 21.9062 128.121 21.8438 128.121 21.7812C128.136 21.7188 128.144 21.6562 128.144 21.5938C128.144 21.3906 128.121 21.1562 128.074 20.8906C128.027 20.6094 127.972 20.3906 127.91 20.2344L126.855 17.3281C126.808 17.2656 126.761 17.2344 126.714 17.2344C126.105 17.1875 125.511 17.1641 124.933 17.1641C124.527 17.1641 124.074 17.1797 123.574 17.2109C123.089 17.2266 122.55 17.25 121.957 17.2812L121.839 17.3516L120.832 19.9297C120.675 20.3203 120.566 20.6484 120.503 20.9141C120.457 21.1797 120.433 21.3906 120.433 21.5469C120.433 21.7656 120.496 21.9219 120.621 22.0156C120.761 22.125 120.988 22.2188 121.3 22.2969C121.613 22.3594 121.839 22.3906 121.98 22.3906C122.027 22.3906 122.05 22.4844 122.05 22.6719C122.066 22.8594 122.058 22.9922 122.027 23.0703L119.613 22.9531C119.175 22.9219 118.746 22.9297 118.324 22.9766C117.918 23.0078 117.535 23.0391 117.175 23.0703ZM124.113 16.0391C124.816 16.0391 125.527 16.0156 126.246 15.9688L126.316 15.8516L124.418 10.6719L122.402 15.8984C122.402 15.9609 122.418 15.9922 122.449 15.9922C122.855 16.0078 123.191 16.0234 123.457 16.0391C123.738 16.0391 123.957 16.0391 124.113 16.0391ZM134.255 23.0703C134.208 23.0234 134.184 22.9062 134.184 22.7188C134.184 22.5 134.208 22.3906 134.255 22.3906C134.395 22.3906 134.583 22.3672 134.817 22.3203C135.052 22.2578 135.27 22.1875 135.473 22.1094C135.692 22.0312 135.825 21.9453 135.872 21.8516C135.981 21.6797 136.036 20.9453 136.036 19.6484V10.7891C136.036 10.3359 136.02 9.9375 135.989 9.59375C135.973 9.25 135.934 8.97656 135.872 8.77344C135.841 8.67969 135.716 8.59375 135.497 8.51562C135.294 8.4375 135.067 8.375 134.817 8.32812C134.583 8.28125 134.395 8.25781 134.255 8.25781C134.192 8.25781 134.161 8.16406 134.161 7.97656C134.161 7.77344 134.192 7.64062 134.255 7.57812C134.661 7.59375 135.091 7.60938 135.544 7.625C136.012 7.625 136.512 7.625 137.044 7.625L139.317 7.60156C139.77 7.60156 140.145 7.60156 140.442 7.60156C140.739 7.58594 140.966 7.57812 141.122 7.57812C142.825 7.57812 144.278 7.92969 145.481 8.63281C146.684 9.32031 147.606 10.2344 148.247 11.375C148.887 12.5156 149.208 13.7656 149.208 15.125C149.208 16.625 148.88 17.9844 148.223 19.2031C147.583 20.4219 146.653 21.3828 145.434 22.0859C144.231 22.7891 142.786 23.1172 141.098 23.0703L139.434 23.0234C138.966 23.0078 138.536 23 138.145 23C137.755 22.9844 137.403 22.9844 137.091 23L134.255 23.0703ZM141.473 21.9922C145.067 21.9922 146.864 19.6719 146.864 15.0312C146.864 13.8438 146.653 12.7656 146.231 11.7969C145.809 10.8281 145.184 10.0547 144.356 9.47656C143.544 8.89844 142.528 8.60938 141.309 8.60938H141.192C139.505 8.60938 138.567 8.73438 138.38 8.98438C138.177 9.25 138.075 9.74219 138.075 10.4609V19.7422C138.075 20.3828 138.192 20.9766 138.427 21.5234C138.458 21.6016 138.591 21.6719 138.825 21.7344C139.059 21.7812 139.341 21.8281 139.669 21.875C140.012 21.9062 140.348 21.9375 140.677 21.9688C141.005 21.9844 141.27 21.9922 141.473 21.9922ZM158.389 23.2109C158.279 23.2109 158.201 23.1641 158.154 23.0703L153.35 10.9531C152.959 9.92188 152.607 9.17188 152.295 8.70312C152.186 8.53125 151.959 8.39844 151.615 8.30469C151.272 8.21094 150.998 8.16406 150.795 8.16406C150.732 8.16406 150.701 8.0625 150.701 7.85938C150.701 7.67188 150.732 7.54687 150.795 7.48438C151.17 7.5 151.592 7.52344 152.061 7.55469C152.529 7.58594 153.006 7.60156 153.49 7.60156C153.678 7.60156 154.014 7.59375 154.498 7.57812C154.982 7.54687 155.615 7.51563 156.397 7.48438C156.428 7.54687 156.436 7.67969 156.42 7.88281C156.42 8.07031 156.397 8.16406 156.35 8.16406C156.053 8.16406 155.748 8.22656 155.436 8.35156C155.123 8.47656 154.967 8.67188 154.967 8.9375C154.967 9.39062 155.951 12.0234 157.92 16.8359C158.139 17.3672 158.326 17.8438 158.482 18.2656C158.654 18.6719 158.803 19.0234 158.928 19.3203C158.975 19.3984 159.037 19.4219 159.115 19.3906C159.209 19.3438 159.272 19.2812 159.303 19.2031L162.818 10.7188C163.115 9.96875 163.264 9.42188 163.264 9.07812C163.264 8.84375 163.162 8.66406 162.959 8.53906C162.756 8.39844 162.522 8.30469 162.256 8.25781C162.006 8.19531 161.795 8.16406 161.623 8.16406C161.561 8.16406 161.529 8.0625 161.529 7.85938C161.529 7.67188 161.561 7.54687 161.623 7.48438C162.357 7.51563 162.928 7.54687 163.334 7.57812C163.756 7.59375 164.022 7.60156 164.131 7.60156L166.498 7.48438C166.529 7.60938 166.545 7.72656 166.545 7.83594C166.545 8.05469 166.514 8.16406 166.451 8.16406C165.748 8.16406 165.279 8.38281 165.045 8.82031C164.873 9.14844 164.686 9.51562 164.482 9.92188C164.295 10.3125 164.1 10.75 163.897 11.2344L159.209 22.4375C159.006 22.9531 158.732 23.2109 158.389 23.2109ZM169.702 20.9141C168.234 19.3828 167.499 17.5156 167.499 15.3125C167.499 14.2188 167.695 13.1953 168.085 12.2422C168.476 11.2734 169.007 10.4297 169.679 9.71094C170.367 8.97656 171.163 8.40625 172.07 8C172.976 7.57812 173.945 7.36719 174.976 7.36719C176.007 7.36719 176.976 7.57812 177.882 8C178.788 8.40625 179.585 8.97656 180.273 9.71094C180.96 10.4297 181.499 11.2734 181.89 12.2422C182.281 13.1953 182.476 14.2188 182.476 15.3125C182.476 17.5156 181.742 19.3828 180.273 20.9141C179.273 21.9766 178.14 22.6797 176.874 23.0234C175.609 23.3828 174.343 23.3828 173.077 23.0234C171.827 22.6797 170.702 21.9766 169.702 20.9141ZM175.351 22.2266C176.351 22.2266 177.226 21.8984 177.976 21.2422C178.726 20.6016 179.273 19.8047 179.617 18.8516C179.976 17.8828 180.156 16.8516 180.156 15.7578C180.156 14.5234 179.952 13.3438 179.546 12.2188C179.14 11.1094 178.507 10.1875 177.648 9.45312C176.788 8.71875 175.781 8.35156 174.624 8.35156C173.64 8.35156 172.788 8.65625 172.07 9.26562C171.351 9.85938 170.796 10.6484 170.406 11.6328C170.015 12.6016 169.82 13.6562 169.82 14.7969C169.82 16.0312 170.023 17.2109 170.429 18.3359C170.835 19.4453 171.468 20.375 172.327 21.125C173.187 21.8594 174.195 22.2266 175.351 22.2266ZM192.712 23.1406C191.68 23.1406 190.712 22.9375 189.805 22.5312C188.915 22.125 188.126 21.5703 187.438 20.8672C186.766 20.1641 186.235 19.3516 185.844 18.4297C185.469 17.4922 185.282 16.5 185.282 15.4531C185.282 14.3438 185.477 13.3047 185.868 12.3359C186.258 11.3516 186.805 10.4922 187.508 9.75781C188.212 9.00781 189.024 8.42188 189.946 8C190.883 7.57812 191.891 7.36719 192.969 7.36719C193.891 7.36719 194.829 7.41406 195.782 7.50781C196.735 7.60156 197.696 7.75 198.665 7.95312L198.618 11.3281C198.618 11.5625 198.454 11.6797 198.126 11.6797C197.969 11.6797 197.868 11.6406 197.821 11.5625C197.774 11.3594 197.712 11.1562 197.633 10.9531C197.571 10.7344 197.43 10.4531 197.212 10.1094C196.837 9.5625 196.298 9.13281 195.594 8.82031C194.907 8.50781 194.055 8.35156 193.04 8.35156C192.274 8.35156 191.555 8.53906 190.883 8.91406C190.212 9.27344 189.618 9.76562 189.102 10.3906C188.602 11.0156 188.212 11.7266 187.93 12.5234C187.649 13.3047 187.508 14.1172 187.508 14.9609C187.508 16.2578 187.727 17.4219 188.165 18.4531C188.602 19.5156 189.29 20.3984 190.227 21.1016C191.18 21.7891 192.305 22.1328 193.602 22.1328C195.149 22.1328 196.344 21.6797 197.188 20.7734C197.438 20.5078 197.633 20.1953 197.774 19.8359C197.915 19.4766 198.024 19.1641 198.102 18.8984C198.18 18.6328 198.258 18.5 198.337 18.5C198.43 18.5 198.54 18.5156 198.665 18.5469C198.805 18.5625 198.915 18.5938 198.993 18.6406L199.11 18.7109C199.11 18.8047 199.079 19.0234 199.016 19.3672C198.954 19.7109 198.876 20.0938 198.782 20.5156C198.688 20.9219 198.594 21.2812 198.501 21.5938C198.423 21.9062 198.36 22.0781 198.313 22.1094C197.157 22.7969 195.29 23.1406 192.712 23.1406ZM200.908 23.0703C200.846 23.0078 200.814 22.8906 200.814 22.7188C200.814 22.5 200.846 22.3906 200.908 22.3906C201.096 22.3906 201.338 22.3516 201.635 22.2734C201.932 22.1953 202.135 22.0859 202.244 21.9453C202.416 21.7266 202.588 21.4375 202.76 21.0781C202.947 20.7188 203.143 20.2734 203.346 19.7422L207.424 9.26562C207.518 9.03125 207.572 8.86719 207.588 8.77344C207.619 8.67969 207.643 8.60156 207.658 8.53906C207.689 8.46094 207.744 8.33594 207.822 8.16406C207.932 7.94531 208.041 7.77344 208.15 7.64844C208.26 7.52344 208.439 7.46094 208.689 7.46094L208.9 7.53125L213.588 19.9062C213.728 20.2656 213.853 20.5859 213.963 20.8672C214.088 21.1484 214.189 21.3906 214.268 21.5938C214.33 21.75 214.463 21.8906 214.666 22.0156C214.885 22.125 215.103 22.2188 215.322 22.2969C215.557 22.3594 215.736 22.3906 215.861 22.3906C215.924 22.3906 215.955 22.5391 215.955 22.8359C215.955 22.8672 215.947 22.9062 215.932 22.9531C215.932 22.9844 215.924 23.0234 215.908 23.0703C215.127 23.0391 214.518 23.0156 214.08 23C213.658 22.9688 213.408 22.9531 213.33 22.9531L210.611 23.0703C210.549 23.0078 210.518 22.8828 210.518 22.6953C210.533 22.4922 210.572 22.3906 210.635 22.3906C210.822 22.3906 211.057 22.3516 211.338 22.2734C211.619 22.1953 211.783 22.0938 211.83 21.9688C211.846 21.9062 211.853 21.8438 211.853 21.7812C211.869 21.7188 211.877 21.6562 211.877 21.5938C211.877 21.3906 211.853 21.1562 211.807 20.8906C211.76 20.6094 211.705 20.3906 211.643 20.2344L210.588 17.3281C210.541 17.2656 210.494 17.2344 210.447 17.2344C209.838 17.1875 209.244 17.1641 208.666 17.1641C208.26 17.1641 207.807 17.1797 207.307 17.2109C206.822 17.2266 206.283 17.25 205.689 17.2812L205.572 17.3516L204.564 19.9297C204.408 20.3203 204.299 20.6484 204.236 20.9141C204.189 21.1797 204.166 21.3906 204.166 21.5469C204.166 21.7656 204.228 21.9219 204.353 22.0156C204.494 22.125 204.721 22.2188 205.033 22.2969C205.346 22.3594 205.572 22.3906 205.713 22.3906C205.76 22.3906 205.783 22.4844 205.783 22.6719C205.799 22.8594 205.791 22.9922 205.76 23.0703L203.346 22.9531C202.908 22.9219 202.478 22.9297 202.057 22.9766C201.65 23.0078 201.268 23.0391 200.908 23.0703ZM207.846 16.0391C208.549 16.0391 209.26 16.0156 209.978 15.9688L210.049 15.8516L208.15 10.6719L206.135 15.8984C206.135 15.9609 206.15 15.9922 206.182 15.9922C206.588 16.0078 206.924 16.0234 207.189 16.0391C207.471 16.0391 207.689 16.0391 207.846 16.0391ZM224.62 23.1406C223.589 23.1406 222.62 22.9375 221.714 22.5312C220.823 22.125 220.034 21.5703 219.347 20.8672C218.675 20.1641 218.144 19.3516 217.753 18.4297C217.378 17.4922 217.191 16.5 217.191 15.4531C217.191 14.3438 217.386 13.3047 217.777 12.3359C218.167 11.3516 218.714 10.4922 219.417 9.75781C220.12 9.00781 220.933 8.42188 221.855 8C222.792 7.57812 223.8 7.36719 224.878 7.36719C225.8 7.36719 226.738 7.41406 227.691 7.50781C228.644 7.60156 229.605 7.75 230.573 7.95312L230.527 11.3281C230.527 11.5625 230.363 11.6797 230.034 11.6797C229.878 11.6797 229.777 11.6406 229.73 11.5625C229.683 11.3594 229.62 11.1562 229.542 10.9531C229.48 10.7344 229.339 10.4531 229.12 10.1094C228.745 9.5625 228.206 9.13281 227.503 8.82031C226.816 8.50781 225.964 8.35156 224.948 8.35156C224.183 8.35156 223.464 8.53906 222.792 8.91406C222.12 9.27344 221.527 9.76562 221.011 10.3906C220.511 11.0156 220.12 11.7266 219.839 12.5234C219.558 13.3047 219.417 14.1172 219.417 14.9609C219.417 16.2578 219.636 17.4219 220.073 18.4531C220.511 19.5156 221.198 20.3984 222.136 21.1016C223.089 21.7891 224.214 22.1328 225.511 22.1328C227.058 22.1328 228.253 21.6797 229.097 20.7734C229.347 20.5078 229.542 20.1953 229.683 19.8359C229.823 19.4766 229.933 19.1641 230.011 18.8984C230.089 18.6328 230.167 18.5 230.245 18.5C230.339 18.5 230.448 18.5156 230.573 18.5469C230.714 18.5625 230.823 18.5938 230.902 18.6406L231.019 18.7109C231.019 18.8047 230.988 19.0234 230.925 19.3672C230.863 19.7109 230.784 20.0938 230.691 20.5156C230.597 20.9219 230.503 21.2812 230.409 21.5938C230.331 21.9062 230.269 22.0781 230.222 22.1094C229.066 22.7969 227.198 23.1406 224.62 23.1406ZM233.239 23.0703C233.176 23.0078 233.145 22.8906 233.145 22.7188C233.145 22.5 233.176 22.3906 233.239 22.3906C233.379 22.3906 233.567 22.375 233.801 22.3438C234.036 22.2969 234.254 22.2344 234.458 22.1562C234.661 22.0781 234.778 22 234.809 21.9219C234.872 21.7031 234.911 21.4219 234.926 21.0781C234.958 20.7344 234.973 20.3203 234.973 19.8359V10.7422C234.973 10.2578 234.958 9.84375 234.926 9.5C234.911 9.14062 234.872 8.85938 234.809 8.65625C234.778 8.5625 234.661 8.48438 234.458 8.42188C234.254 8.34375 234.036 8.28125 233.801 8.23438C233.567 8.1875 233.379 8.16406 233.239 8.16406C233.176 8.16406 233.145 8.0625 233.145 7.85938C233.145 7.67188 233.176 7.54687 233.239 7.48438L236.051 7.60156C236.176 7.60156 236.465 7.59375 236.918 7.57812C237.372 7.54687 237.989 7.51563 238.77 7.48438C238.801 7.60938 238.817 7.72656 238.817 7.83594C238.817 8.05469 238.786 8.16406 238.723 8.16406C238.629 8.16406 238.465 8.19531 238.231 8.25781C237.997 8.30469 237.778 8.36719 237.575 8.44531C237.372 8.50781 237.254 8.57812 237.223 8.65625C237.083 9.1875 237.012 9.91406 237.012 10.8359V19.7422C237.012 20.6484 237.083 21.375 237.223 21.9219C237.254 21.9844 237.372 22.0547 237.575 22.1328C237.778 22.2109 237.997 22.2734 238.231 22.3203C238.465 22.3672 238.629 22.3906 238.723 22.3906C238.786 22.3906 238.817 22.5078 238.817 22.7422C238.817 22.8359 238.801 22.9453 238.77 23.0703C237.989 23.0391 237.372 23.0156 236.918 23C236.465 22.9688 236.176 22.9531 236.051 22.9531L233.239 23.0703ZM240.99 23.0703C240.928 23.0078 240.896 22.8906 240.896 22.7188C240.896 22.5 240.928 22.3906 240.99 22.3906C241.178 22.3906 241.42 22.3516 241.717 22.2734C242.013 22.1953 242.217 22.0859 242.326 21.9453C242.498 21.7266 242.67 21.4375 242.842 21.0781C243.029 20.7188 243.224 20.2734 243.428 19.7422L247.506 9.26562C247.599 9.03125 247.654 8.86719 247.67 8.77344C247.701 8.67969 247.724 8.60156 247.74 8.53906C247.771 8.46094 247.826 8.33594 247.904 8.16406C248.013 7.94531 248.123 7.77344 248.232 7.64844C248.342 7.52344 248.521 7.46094 248.771 7.46094L248.982 7.53125L253.67 19.9062C253.81 20.2656 253.935 20.5859 254.045 20.8672C254.17 21.1484 254.271 21.3906 254.349 21.5938C254.412 21.75 254.545 21.8906 254.748 22.0156C254.967 22.125 255.185 22.2188 255.404 22.2969C255.638 22.3594 255.818 22.3906 255.943 22.3906C256.006 22.3906 256.037 22.5391 256.037 22.8359C256.037 22.8672 256.029 22.9062 256.013 22.9531C256.013 22.9844 256.006 23.0234 255.99 23.0703C255.209 23.0391 254.599 23.0156 254.162 23C253.74 22.9688 253.49 22.9531 253.412 22.9531L250.693 23.0703C250.631 23.0078 250.599 22.8828 250.599 22.6953C250.615 22.4922 250.654 22.3906 250.717 22.3906C250.904 22.3906 251.138 22.3516 251.42 22.2734C251.701 22.1953 251.865 22.0938 251.912 21.9688C251.928 21.9062 251.935 21.8438 251.935 21.7812C251.951 21.7188 251.959 21.6562 251.959 21.5938C251.959 21.3906 251.935 21.1562 251.888 20.8906C251.842 20.6094 251.787 20.3906 251.724 20.2344L250.67 17.3281C250.623 17.2656 250.576 17.2344 250.529 17.2344C249.92 17.1875 249.326 17.1641 248.748 17.1641C248.342 17.1641 247.888 17.1797 247.388 17.2109C246.904 17.2266 246.365 17.25 245.771 17.2812L245.654 17.3516L244.646 19.9297C244.49 20.3203 244.381 20.6484 244.318 20.9141C244.271 21.1797 244.248 21.3906 244.248 21.5469C244.248 21.7656 244.31 21.9219 244.435 22.0156C244.576 22.125 244.803 22.2188 245.115 22.2969C245.428 22.3594 245.654 22.3906 245.795 22.3906C245.842 22.3906 245.865 22.4844 245.865 22.6719C245.881 22.8594 245.873 22.9922 245.842 23.0703L243.428 22.9531C242.99 22.9219 242.56 22.9297 242.138 22.9766C241.732 23.0078 241.349 23.0391 240.99 23.0703ZM247.928 16.0391C248.631 16.0391 249.342 16.0156 250.06 15.9688L250.131 15.8516L248.232 10.6719L246.217 15.8984C246.217 15.9609 246.232 15.9922 246.263 15.9922C246.67 16.0078 247.006 16.0234 247.271 16.0391C247.553 16.0391 247.771 16.0391 247.928 16.0391Z" fill="black"/>
</svg>
